<svg xmlns="http://www.w3.org/2000/svg" width="2024.576" height="661.934" viewBox="0 0 2024.576 661.934">
  <path id="Tracé_11158" data-name="Tracé 11158" d="M1872.478,1349h-36.9l-35.735-1.863,0,0,0,0-1.169,1.858h0l1.172-1.86L1835.51,1349v0h-39.355l2.727-1.378-2.729,1.378h-13.529l15.314-1.655L1782.621,1349h-36.506l56.621-25.095L1746.112,1349h-52.686l18.414-7.781L1693.426,1349h-14.9l22.677-23.994-65.626,3.97,95.866-30.647h.012l96.3-26.308-7.646,4.781,7.648-4.781,20.419-1.736-20.42,1.736,35.6-4.247,10.908-1.3,9.151.817-.708.06.708-.06.4.036-.831.019.832-.019h0l0,0,.066-.074,1.929-2.155,7.16-.854,11.283-.759-19.76,3.716-.674.127h.007l2.221-.258,11.4-.969-11.4.969,5.35-.623-5.353.623-1.265.108,1.262-.107-2.218.258.674-.127,19.758-3.716-11.272.758,7.488-.893,7.833-.626-4.047.761h.007l.01,0h.006l4.031-.758,8.345-.668-4.1.871h0l-2.693.181,2.687-.18-11.023,2.34-10.129,1.179,10.128-1.179-3.808.808h.013l94.1-2.643-24.587,4.25h0l-62.562-1.448,62.56,1.448-88.259,13.1,88.257-13.1-31.72,13.015-67.94,1.782v0l30.13-16.4h-.006l-30.13,16.4-68.266,7.324,68.262-7.323-99.678,35.047,31.411-27.721h0L1767.9,1317.53l.005,0-.006,0,99.685-35.05-32.905,27.267h0l.007,0h0l50.415-14.523-50.422,14.524v0l32.9-27.265,67.944-1.783-50.424,14.526,50.425-14.526-9.217,6.656,9.219-6.656,67.132,8.994-101.825,16.061v0l18.08-13.056-18.086,13.059-28.818,1.741,28.817-1.739-100.99,41.382h0l100.991-41.383L1872.478,1349l28.354-43.246,51.418,10.4-51.414-10.4,101.83-16.063,21.334,7.844V1338.8h0V1349H1877.633l97.014-28.316,44.889,16.48-44.886-16.481,38.638-1-38.64,1,28.017-30.991-28.018,30.991h0L1877.629,1349h-5.151Zm-37.8-39.25-34.838,37.387,0,0Zm-66.781,7.781-66.688,7.474,66.688-7.474h0Zm-36.449-19.2-1.142,1.008,1.142-1.007.01,0ZM1678.527,1349h-44.2l66.875-23.992L1678.527,1349Zm-63.484,0H1561.11l74.468-20.022L1615.043,1349Zm-68.9,0h-32.729l-33.372-6.392h0l-8.826,6.392H1395.54l-6.655-2.488,91.154-3.905h0l-91.147,3.9v0l34.355-20.125h0l-34.357,20.126-15.46-6.278,15.459,6.278h0l-5.028,2.488h-64.968l-19.826-8.873,43.257,3.074-43.256-3.075,36.3-15.354,38.069,15.46-38.066-15.46,87.883,1.611h0l-.005,0h0l-87.875-1.61,33.292-18.121,30.612,11.065-30.61-11.065L1403,1291.388h0l-34.353,15.263h-.006l-34.711-2.442,34.716,2.443-33.292,18.121-50.944-22.718,50.939,22.717-81.541-6.723,81.541,6.724-36.3,15.355L1266.787,1349h-9.445l-48.1-20.834,89.817,11.961h0l-51.453-22.59,6.018-3.088-6.021,3.086h0l-52.316-24.5,43.058,3.744-43.057-3.745,29.686-17.842,55.9,25.283v0h0l-23.653,12.129,23.657-12.13h0l.005,0,30.281-18.539,10.669,4.587-10.666-4.585,46.844,4.82-46.845-4.822,34.811-15.4h0l-34.814,15.4h0l-57.236-24.849,85.831,8.808-85.829-8.81,30.628-16.136-30.63,16.136-53.985-21.138,40.1,2.065-40.1-2.066,28.178-18.76,34.375,13.842-34.373-13.842,96.7,11.385h0l-96.694-11.385,33.318-15.738,10.55,4.514-10.549-4.514,26.3,4.84-26.3-4.84,43.6-7.4-43.6,7.4-58.109-22.558,101.707,15.157-101.705-15.158,43.811-7.977h0l-81.787.281h0l41.743-16.208,11.315,4.5-11.314-4.5,89.282,2.018-49.228,13.908h0l23.135,9.245-23.13-9.245,104.488,18.755h.005l42.8,4.924-13.325,13.055-13.6,13.323h0l63.427-40.527-63.422,40.522,13.589-13.317,13.325-13.056,44.811-19.454-19.286,36.7,19.286-36.7,47.719-11.467-73.664,60.845h0l0,0h0l-28.778,30.036,0,0h0l28.775-30.033,73.666-60.848-25.462,63.2-27.957,42.487h0l79.279-29.449,55.718,22.358L1512.84,1239.9l82.6-34.049-26.876,56.407h-.005l-41.561,11.242,41.565-11.241-27.792,37.829h0l27.791-37.829,58.556,22.194-86.349,15.637h0l-55.336-15.349,41.565-11.241-41.566,11.241-21.418-6.355,21.416,6.355-82.415,6.641h0l-24.858-10.831,24.853,10.83h.009l82.415-6.64-29.885,24.009-52.53-17.367,52.521,17.365-86.739-2.1,86.746,2.1-32.3,17.627h0l42.585,12.164-42.582-12.164,88.5-6.909-31.709,23.13h.009l31.7-23.129,48.78,6.117-48.777-6.118L1600.29,1306l63.809-1.428-22.423,5.442-42.636,10.348,42.635-10.348,22.423-5.442-29.34,24.273h0L1571.71,1327h0L1546.142,1349Zm49.777-39.79-24.207,17.783Zm-249.949-42.68,32.181,14.025-32.179-14.024,38.558-11.978,32.886,9.927-32.886-9.927h0l-59.708-25.984,88.481-4.053h-.013l-88.463,4.053,42.691-7.6-42.7,7.6h-.005l-39.15,11.79-23.176-9.333,23.176,9.333h0l98.863,14.195-38.558,11.978Zm.756.025,86.829,2.8h0Zm20.792-45.588h0l-62.488-26.924,62.483,26.924h0Zm-15.883-31.3-46.6,4.378h.011ZM1634.327,1349h-19.283l20.535-20.022,65.625-3.971Zm-383.008,0h-56.609l-30.968-7.626L1194.7,1349v0h-30.047l-32.976-14.671L1164.649,1349l-9.667,0-66.32-17.975L1154.973,1349v0h-82.1l-36.446-19.578,74.037,18.773-74.039-18.775,46.548.085-46.548-.086h-.01l-66.132-4.947-32.672-2.445h0l-.395-.028,48.627,16.88v0l-49.713-.378-51.091-.389,35.647-11.276-35.648,11.276-47.491-17.3,29.718.279-29.714-.28h-.005l47.484,17.3v0l-101.787-.262L820.5,1326.16l17.041-5.347h-.006l-98.3-2.908,98.3,2.909L820.5,1326.16l-37.265,11.692,101.8.263L906.879,1349v0H804.253l-21.016-11.147h0L804.248,1349v0h-46.4l25.385-11.146,0,0L757.845,1349H495.86l-17.725-11.568,33.889-.092-33.888.091,62.229-20.393-62.232,20.393h0L495.857,1349l0,0H392.646l-16.2-11.232h0l16.2,11.231,0,0h-47.1l30.9-11.233h0L345.548,1349H187.415l-14.329-12.12,101.67.658L242.17,1349l32.588-11.462,50.862.114-50.861-.115h0l-101.674-.658h0l-28.806-27.568-27.341-32.118,96.508,9.352-69.163,22.765,63.063,2.818,35.955,1.606-70.215,23.145,70.217-23.145,31.454,23.8h0l-31.452-23.8,66.665-17.435h0l-22.845-2.309,22.845,2.309L243.3,1313.735l-29.857-27.188,38.629,3.9-38.627-3.9,65.743-15.846-65.746,15.846h0l-28.385-32.4,64.83-14.931,91.786,22.683-30.069-29.848h0L282.9,1197.333l87.648,32.381,30.774,28.057v0l-89.711-25.722,89.715,25.724-59.559,4.144h0l91.792,16.658.03.019.046-.005-.076-.014-32.229-20.8,54.45,8.57-54.447-8.57,56.881-4.512h0l-31.982-27.924,85.755,15.346-53.772,12.579h0l53.771-12.579,33.4,17.378-33.4-17.377,85.716-4.129-51.81,21.769h0l-.006,0v0l-52.407-3.026,52.408,3.026-51.06,12.637,51.063-12.637,34.941,10.837-39.688,1.209,39.677-1.207-55.291,13.3h0l-.1,0,.047.015-57.991,10.063h0l57.991-10.063.014,0,.044-.008,36.08,8.142-10.449,2.268,10.45-2.268-36.081-8.142,91.836-4.653.031.008.045-.011-.076,0h0l-36.539-8.642,58.3-3.055,31.5-1.649L617.455,1277.8h.008l-55.837,12.8h0l27.625,7.466-27.62-7.465.005,0h0l55.826-12.8,38.289,9.856-54.471,1.7,54.471-1.7-56.271,13.172-10.232-2.765,10.227,2.764-40.225,1.038,40.225-1.037,39.856,15.062-98.967,1.146h0l98.968-1.145-59.528,21.264h0l-67.78.184,67.781-.182,38.136.015-38.134-.015,59.529-21.264,98.979,1.983-56.82,19.32h0l-38.14-.014,38.14.015,101.628.653L681.5,1337.2l56.82-19.32-98.98-1.984,56.617-15.117,42.364,17.1-42.359-17.1,96.577,6.459-54.218,10.639,54.221-10.639h0L758.091,1295.5l34.443,11.734-96.576-6.458,53.945-8.066,8.188,2.79-8.183-2.788,72.043,8.485-72.034-8.485,1.3-.036-1.311.034-40.5-14.974h-.075l.02.007.031,0-53.614,9.917.006,0,53.629-9.921,40.506,14.973-53.945,8.066h0l-15.166-4.95,15.162,4.95-96.469.054,96.469-.054-56.617,15.117h0l-39.85-15.062,56.271-13.172h0l-38.293-9.858,91.859-.064-38.674-13.277h-.005l-.007,0-31.5,1.651-58.3,3.053,23.4-7.835-23.4,7.835h-.007L545.9,1258.323l87.714-6.834h0l-87.706,6.833v0l51.8-21.767,31.433,13.076-31.429-13.075,85.671-4.9-19.833,7.9-29.932,11.929h0l14.573,5.1-14.571-5.1h0l29.931-11.929,19.834-7.9,19.784,10.31-19.783-10.31,75.58,9.731-75.578-9.733,44.709-11.252h.007l-.007,0h.007l84.037,22.8-42.787-.511,42.791.512h.005L855,1266.025v0l.009,0L809.04,1271.2h0l45.969-5.166,41.683,23.614-41.678-23.612,5.437.783,80.821,11.67L896.7,1289.647h-.008l-85.6-18.018,85.608,18.019,40.128,13.017L896.7,1289.648l43.84,2.752,43.836,2.752-44.516,8.5h-.015l-89.688-11.48,46.542-2.518-46.542,2.518h0l-.006,0v0h-.007l-48.831-.8-.062-.009.018.008h.052l-50.1,1.312,50.1-1.312h0l91.821,12.953-42.984-12.151,89.687,11.48-46.635.681.016,0-49.053-.517h0l49.053.518,91.838,4.2-45.185-4.883,59.453,1.658-59.461-1.659,44.508-8.5h.008l-43.1-16.666,42.277-11.639-41.362-9.358h-.005l41.347,9.356-83.93-4.951,83.942,4.953-42.277,11.639h-.009l-80.815-11.667-5.438-.785,43.976-4.175,7.144,2.809-7.143-2.809h0l-43.979,4.175v0h0L812.148,1243.2l86.828,18.648h0l-.007,0h0L812.15,1243.2l42.49,2.643,14.148,5.107-14.145-5.106,43.945,1.444h.005l39.251,9.178-39.25-9.179,44-2.139h0l-44,2.14h0l-.008,0-17.215-4.814,17.175,4.8v0l-90.172-18.525,43.411,5.447h0l-.013,0-88.057-26.23,33.427,6.684-33.435-6.687-39.928-26.1,45.835,19.444,34.955,14.829-7.427-1.485,7.428,1.485h.007l93.615,18.4v0l-46.4-.34h0l46.411.341h0l-46.8-16.885,48.64-6.037-.007,0v0h.006l-48.639,6.037,46.786,16.88v0l-93.609-18.4,46.822,1.521h0l0,0-.007,0-88.225-27.534,88.226,27.539v0l-46.822-1.521.011,0h-.012l-.008-.005.009,0-38.988-24.5,38.979,24.5-34.949-14.825-45.835-19.446,39.386,8.254,0,0,0,0v0l-60.488-30.333,60.485,30.333v0l-39.383-8.255-29.632-24.284,29.629,24.282-70.525-28.7,70.52,28.7-38.151-4.721,38.158,4.724.011.007,39.917,26.094v0l-78.676-30.9-38.36-26.583h0l38.36,26.584h0l-3.487.389,3.492-.387,27.345,15.324-27.341-15.323,78.671,30.9v0l-37.653-7.913h0l37.666,7.917.008,0-.005,0h0l88.056,26.231v0l-43.4-5.444-42.637-19.847,42.615,19.837v0l-82.3-28.7h0l82.314,28.7-39.706-7.631h0l.01,0,39.7,7.629,15.713,5.8-15.707-5.8,90.2,18.532v0l-43.931-1.444-.026-.007-42.387-12.187,42.4,12.192v0l-42.481-2.642-.006,0-29.289-14.868,29.285,14.867L728.1,1220.4l40.547.718-40.553-.72-41.436-18.453,0,0v0l-81.974-5.649,41.049-14.875,35.614,17.859-35.61-17.858,54.853,12.721,25.443,5.9h0l-13.672-7.662,13.671,7.661-25.443-5.9-54.855-12.722,28.437-3.159-28.439,3.159h0l-35.546-21.83,35.543,21.828-80.285-7.658,40.891-16.534-75.335-6.436,75.331,6.436-40.89,16.534-37.659-23.244,41.769-18.449,36.783,25.158-36.781-25.156,42.51-9.16,8.375,6.673-8.375-6.674,75.547,29.314,6.527,5.349-6.524-5.347,15.056,7.55-15.057-7.551-34.264-36.981,46.818,24.15-46.82-24.152,17.6-6.852,17.6-6.852,39.095,51.908-39.092-51.906,60.435,39.178,12.9,8.361h0l0,0h0l-12.892-8.358-60.437-39.18L719.949,1091l0-.005,0,0h0l-74.292-57.075,30.355-15.283,30.75,50.64-30.749-50.64,9.212.116-9.213-.117,0,0h0l-21.546-17.593,21.549,17.6-30.356,15.283h0L600.867,957.28l40.517,33.083-40.518-33.085,30.857-18.436,39.108,70.468-39.106-70.466,75,80.176-.008-.009-74.994-80.168,33.995,6.216,37.48,67.6-37.476-67.594v0l0,0,37.462,27.4,0,0,.005.005,34.885,59.532h0l-65.742-79,65.747,79v0l-31.348-12.981,0,0,79.073,71.578h0l21.9,19.37-21.892-19.368,109.534,52.611-52.057-1.761,52.06,1.763,49.173,27.481-98.857-28.557,98.868,28.564-46.047,7.555L797.56,1143.61l-28.235-32.8,28.231,32.8h0l52.981,41.7v0l-30.751-12.566,30.758,12.57,0,0-52.987-41.7,100.925,34.651h0l46.048-7.554h0l-.006,0-49.174-27.483-.005,0-57.426-40.327,57.412,40.318-109.524-52.6,11.791,2.7,39.617,9.089-.005,0L797.6,1093.31l-11.792-2.7-47.726-58.6,43.025,22.467,28.746,24.552-28.742-24.55,114.1,62.9L852.2,1106.267l-14.976-3.867,107.48,41.3,44.443,14.17v0l.013,0-44.622,12.832,41.266,15.177-79.694-6.957,79.695,6.957-41.207,14.572h0l-44.446-21.394,44.439,21.391v0l-94.038-15.143,42.49-6.25-42.49,6.25h0L805.5,1191.3l-42.181-40.827L805.5,1191.3l0,0h0l0,0-42.334-1.187,42.343,1.191,27.167,15.6-27.166-15.6,70.425,15.133-70.421-15.133,45.038-5.993.006,0h-.005l48.276,25.659-48.27-25.658,94.04,15.143-44.55,11.161h0l27.271,10.15-27.27-10.15,82.539,2.663-39.1,13.5,38.431,9.773v0l-31.637-1.141,31.644,1.142-13.872,2.678,13.875-2.677h.005l-38.435-9.774h0l.007,0,39.092-13.5h0L944.6,1200.458l38.029-1.62-38.023,1.618v0l41.2-14.57,25.27,8.219-25.264-8.218,72.993-8.6-38.147,19.933h0L994.37,1209l26.292-11.783.011,0v0l38.139-19.929,3.109.817-3.107-.817,47.833-12.795-47.826,12.791v0l38.166-21.775,21.787,5.742-3.535.946,3.536-.945,21.384,5.362-21.381-5.363,59.346-17.417-18.982,11.39,18.983-11.39,28.964,11.151-66.928,11.629,18.982-11.39-18.983,11.39,66.929-11.628-41.744,16.208h0l-25.185-4.579,25.184,4.58h0l37.97,7.694-73.129,7.515,35.154-15.209,0,0h-.005l-35.156,15.207h.006l73.135-7.515,0,0h0l-37.967-7.692,81.784-.282-43.816,7.976-27.518,20.237-45.624-12.72,45.623,12.72-9.891,1.7-57.43,9.891,21.7-24.314-21.7,24.314-36.7-5.854,36.7,5.854-60.71,15.991v0l24.01-21.843-1.816-.095,1.813.095-57.495,17.65h0l-31.69-8.231,64.385-10.715h.011l37.512-11.948,18.76-5.974-31.478,19.218,40.257-12.726-40.255,12.725,31.478-19.217,26.917.758-26.914-.76,26.95-6.274-26.95,6.273,36.9-19.033-36.9,19.033-20.854-2.16,20.85,2.161-18.759,5.974-37.51,11.946v0l35.416-20.077h0l-35.422,20.082-26.311-6.346,26.307,6.348-64.383,10.714,11.78-5.28-11.781,5.28h0l31.691,8.232-70.784,5.272,70.784-5.272-32.354,15.048h0l65.829-10.85-29.571,15.172h0l35.677,4.353-35.671-4.354,66.174-10.746-7.226,3.9,7.228-3.9.008,0,49.438-7.9-49.442,7.9h0l0,0,24.106-20.417,5.935,1.356-5.933-1.356,57.428-9.892,9.892-1.7,52.31,18.061-34.126,1.458,34.124-1.456-28.177,18.76-48.777-15.474,48.774,15.475,53.985,21.139-81.092-2.754.006,0h0l81.092,2.754,57.229,24.846v0l-86.172-6.743,25.174-15.748-25.176,15.748h0l-29.686,17.842-22.183-9.552,22.183,9.553,52.309,24.5v0l-4.536-.5-83.2-9.086.006,0h-.006l40.069,16.4-40.063-16.4,83.2,9.084,4.541.5-38.358,10.63h0l-.006,0-.008,0v0l-89.792-12.871,89.807,12.876-40.205,4.6-49.6-17.479,40.421-7.338-49.007-22.019,56.292,4.734-56.293-4.734,32.927-15.081,29.329,12.629-29.327-12.63,81.191,4.339h0l-81.187-4.339,29.047-16.52h0l-29.045,16.519-46.394-15.423,46.39,15.424-32.926,15.082-46.473-17.647,46.473,17.647h0l49,22.016v0l-87.724-8.573,38.721-13.443h0l-38.722,13.443-.006,0h0l-21.234,3.386,21.24-3.385,47.309,15.908v0l-44.889-4.569,44.9,4.571-42.365,1.478-47.424-10.617,44.891,4.569-44.895-4.57,21.236-3.386-21.24,3.385h0l-44.5,2.383-.066,0,.04,0h.039l-46.731,1.36.588.055-.185.005.285.016-.286-.016,45.755,4.365.95.091-48.736,7.334-9.259-1.8,9.258,1.8h0l.642.219-.214.033.394.03-.18-.062,48.959-7.472.006,0h-.005l.011,0-.005,0,.008,0,8.51,2.539L986.4,1314.5l96.649,15.009h.006l-49.931-14.458,94.262,17.373-94.282-17.379h-.012l.011,0h-.046l-.047,0-46.623-.545-.865-.083.427-.064h-.027l-46.533-4.359-.386-.036,46.562-1.347,47.516,6.438h.008l-47.524-6.44,91.984,8.351-43.757-1.88,43.776,1.882h0l92.007,16.125-42.191-.658h.005l42.191.657,81.736,15.92Zm-908.978-31.644,99.049.775-64.944,19.636h.007l64.937-19.634,36.738,19.3-36.738-19.3,98.974-1.093-98.974,1.092,61.626-14.812,18.674,6.86-18.672-6.859-.006,0h0l-.007,0v0l-96.5-.489,60.975-10.295h-.008l-60.971,10.3-33.167-17.6,33.164,17.6-64.16,14.529,64.161-14.528,10.639,4.666-10.636-4.666,96.511.49L441.39,1318.13l-24.25-10.636,24.25,10.637Zm22.882,13.695,11.221,6.715h0ZM243.3,1313.736l99.035,3.62-67.581,20.182,67.582-20.182h-.005Zm234.823,23.7-2.85.009,2.854-.009Zm393.79-22.154-34.374,5.535h.005Zm17.337-2.791,38.274,7.455-38.269-7.455-.024,0-.015,0-96.673-5.245h0l96.7,5.248-2.335.376Zm-367.564-2.308,18.674,6.86Zm270.856-2.942h0l51.607-3.424Zm237.077-1.085h.01l-45.247-11,45.238,11ZM821.951,1301.2l22.2,2.615-.012,0h0Zm-270.779-8.329-48.156,10.449h.005Zm-241.2,3.433,93.779,6.34-93.776-6.341,63.364-11.071-.005,0L279.193,1270.7l9.539-1.339-9.538,1.339h0l-94.128-16.553,94.131,16.555,94.142,14.529L309.969,1296.3h0l4.551,2.96Zm674.416-1.151,87.723,4.23h0v0h-.005l-87.715-4.229,42.094-14.393,12.929,5.277-12.924-5.275,26.023,1.6-26.022-1.6,37.883-12.471,33-12.86h0l-33,12.86h0l-37.884,12.47-36.781-11.92,36.773,11.918-84.91-2.263,84.914,2.265-42.093,14.393Zm-516.894-2.618h0l92.271-1.894,1.855-.038-1.855.038-92.274,1.894Zm-87.262-6.77,80.94,6.279Zm380.223-13.118-51.051,5.093,91.846,13.617-40.787-18.71,19.522,4.249,8.309,1.808-8.31-1.809-19.521-4.248,48.576-1.447h0l-48.577,1.447-.005,0Zm-418.69-10.726,30.167,22.271-30.166-22.272h0l-24.177,3.394Zm91.881,16.673,91.792,3.862-34.38-10.557.005,0-.008,0h0l-7.061-1.111,7.061,1.112-57.42,6.694.01,0-6.636.73Zm287.7-27.151-50.7,13.016,44.908,4.094,44.9,4.093,0,0-44.9-4.092-44.9-4.093,50.691-13.015h0Zm54.949,12.378,32.747,7.378h0L771.3,1244.283l37.732,26.909v0Zm207.358,3.028,40.315.719,40.4.72-.009,0-40.393-.718Zm-.09,0,38.689-9.335h-.014l-80.038-.024h0l80.044.023-38.685,9.336ZM769.067,1242.69l85.221,23.145-85.223-23.146-35.349-19.227,35.343,19.225v0h.006l0,0Zm-47.724,8.75,25.51,13.829-25.506-13.828,41.97,9.454-41.971-9.456h0Zm-87.734.049-29.369,9.836,29.372-9.835h0Zm411.289-1.394-22.651,7.412h0Zm-102.3-4.942,40.123,6.125-40.526,6.207h.006l40.524-6.207-40.12-6.125,25.444-4.911-25.451,4.911h0Zm113.323,1.337,41.456,8.936h.006l70.787-1.027-70.788,1.026,28.453-15.743,42.39,13.215-42.388-13.216-41.454-8.54,41.45,8.541-69.9,6.807v0l15.38-8.3-15.387,8.3-2.055-.249,2.052.25L1044.9,1250.1Zm-73.2,4.788,19.607,3.091-19.6-3.092h.005l73.183-4.786-73.173,4.786,35.444-9.39h-.01l-35.453,9.39h0Zm-261.382.161-70.131.04,70.134-.039Zm130.46-17.234,83.595,10.079L851.788,1234.2Zm143.025,4.895,23.358,2.784h.005Zm156.325-18.63-23.974,18.191,23.975-18.191Zm-252.934,14.074,30.784,1.11-30.787-1.111Zm-.01,0h0l45.272-6.755h0l-89.137-9.806,89.138,9.807-45.271,6.754Zm-211.548-32.593,62.938,14.718-62.936-14.718,39.369-1.9-39.37,1.9Zm334-4.73-38.028,1.62,38.029-1.619h0Zm61.739-13.735-30.865,6.867-30.525,6.791,30.525-6.791,30.867-6.867Zm-354.609-29.837L755.55,1167.1l-27.76-13.453,34.087-4.568-34.089,4.568h-.007l0,0-39.936-1.41,39.947,1.413Zm-81.14-3.172-40.319,6.753,40.322-6.752h0Zm150.9-6.865-35.674,5.467h0l35.674-5.467Zm-48.6-56.463,94.334,54.311-45.727,2.152,45.729-2.152,0,0-.008-.007h0l-94.324-54.3-31.47-50.776,31.464,50.767h0l.005.005-29,3.858h0l29-3.856,0,0Zm-29,3.854,38.8,26.3,1.785,1.21-1.785-1.21-38.8-26.3h0Zm0,0,10.309,14.28L719.951,1091h0Zm18.487-58.743,24,17.041,74.772,53.093-.007-.006-.015-.013-74.75-53.074ZM1072.868,1349H1040.66l-53.358-9.615,49.122-9.964L1072.868,1349Zm-32.22,0h-37.575l-15.771-9.615-.877-.3.412-.192h0l-49.224-16.861,32.668,2.444,66.138,4.949-49.121,9.963,53.349,9.614Zm-37.576,0h-36.33l20.558-9.615,15.769,9.613Zm-37.91,0H906.884l-21.845-10.885,51.089.388,49.722.379h.006l.569.2Zm-777.747,0h-49.3l34.969-12.12L187.412,1349Zm-49.3,0H0v-24.836H0V1306.1l45.259.044L0,1306.1v-24.8l20.437-9.413,24.828,34.26h0l-.006,0L0,1324.167l45.265-18.021,26.156,30.124v0h0l-53.559-.038,53.56.039,38.265.229-38.26-.23,72.847-26.957h0L71.425,1336.27h0l-26.158-30.125,35.325,1.13-35.326-1.131,71.67-28.951,27.342,32.119,28.8,27.566,0,0h0l-38.193-.229,38.195.229Zm1160.931-8.875-89.806-11.959,38.358-10.63,51.449,22.588ZM1083.033,1329.5,986.4,1314.5l46.7.547,49.929,14.457Zm340.218-3.118v0l32.292-17.624h.01l85.211-8.66-11.481,7.667,11.483-7.668,53.622,5.317-53.619-5.317,86.347-15.638L1600.291,1306l-5.9-.584,5.9.586-88.542,13.476-56.2-10.716,56.2,10.716Zm-303.819-11.094-47.313-15.91,87.729,8.573ZM243.3,1313.734h0l-35.955-1.606-63.062-2.818,69.163-22.764,29.854,27.186Zm1212.241-4.979,0,0,29.882-24.007,55.336,15.349-85.217,8.659ZM45.265,1306.144h0l-24.827-34.259,81.765,4.5-81.763-4.5,25.142-11.1-25.143,11.1L0,1271.9H0v-37.628l66.183-31.424,24.756,37.922h0l-24.755-37.92,91.767,14.4.018.026.062-.014-.08-.013-25.746-38.04,89.69,23.865L132.2,1179.2l63.05-13.157h0L132.2,1179.2l-24.58-33.4,43.815,10.121,30.034,6.938-30.034-6.938L107.623,1145.8l62.327-9.712-62.328,9.712-7.062-6.165,7.061,6.164L20,1145.444l64.158-20.122L20,1145.444h0L.173,1134.491,20,1145.445h0v0l87.617.355-65.106,23.225h0l-3.152-3.3,3.152,3.3L0,1172.355v0H0v-17.8l17.978-8.192L0,1154.556H0v-21.144l84.162-8.09L0,1133.411v-.219L46.5,1122,0,1133.191v-7.853l61.716-7,22.446,6.984-22.443-6.984-21.575-3.92,29.885-2.736-29.886,2.736h0l-20.8-8.045h0L0,1105.239v-14.578l44.5,6.409L0,1090.66v-18.483l57.472,15.193,20.867,14.574h0l-20.863-14.573h0l0,0L0,1072.176v-5.6l37.3-.53-11.782-15.764,11.78,15.763L0,1052.645v-20.083l16.708,5.94,8.807,11.781-8.8-11.781,73.3,22.271-5.273.527,5.273-.527,23.482,26.112-58.75-16.069,58.748,16.069-56.006.486h0l77.515,13.819-56.645.754,0,0,78.836,6.167-57.249.832h-.032l-80.556-2.573h0l80.548,2.573-29.869,2.737,29.885-2.736,22.338,2.148-22.319-2.147h-.007l31.7.718-31.692-.719,57.259-.831.741.086-.734-.086h-.02l-78.832-6.167,56.645-.754,2.751.858L135,1101.19l54.356-4.911,8.395,3.209-8.394-3.209,71.4,1.256,1.233.021-50.673,7.117-13.566-5.185,13.563,5.185-75.2-3.432,75.2,3.433-3.431.218,3.432-.218h.008l15.821,4.746-15.822-4.747,50.673-7.117,10.177,5.345-10.176-5.345,68.37,3.993-46.934,7.266-11.26-5.913,11.26,5.915-8.315.422,8.316-.422h0l69.626,7.614h.009l26.092,18.036v0l-58.035-10.387,58.037,10.388-46.01,4.822-22.428-15.17,22.421,15.167-7.11-1.64-68.73-15.874,49.6-.237h0l-49.592.238h-.008l0,0-.005,0-23.758-10.433,73.356,10.194h0l-73.355-10.194h0l-76.323-3.227,50.667-3.221-50.675,3.22,76.332,3.229,23.749,10.428v0l-77.419-11.015,53.086.578-53.088-.579h-.022l-27.164-.615,27.186.616-57.594.338,57.6-.338.4.142-.4-.141,77.422,11.016-53.73-2.559,0,0,79.635,19.906-54.405-2.643-6.058-4.144,6.057,4.144,10.952,10.934-10.949-10.933,82.479,27.86-55.844-1.267,27.47,34.255,0,0h0l-87.637-31.283,87.64,31.285-60.995,5.74h-.007l-63.862,14.186h0L249.81,1239.2l.02.025.058-.007-.078-.019L221.9,1203.073l89.706,28.978-61.718,7.163h0l-64.829,14.929h0L138,1247.457l-47.058-6.687,67.09-23.51,27.026,36.881h0l-27.027-36.883h0l-67.09,23.51h0l-47.055-2.5,47.055,2.5-14.587,6.438,14.587-6.437,25.995,36.421h0l-71.67,28.95Zm149.988-140.1,26.646,37.024-26.643-37.024h0Zm-24-29.545,84.165,26.572-60.166,2.973,60.167-2.973h0l-.005,0,0,0Zm-1.306-.412,58.834.392h-.008Zm-85.787-10.766,83.261,10.45-83.262-10.452,61.46-7.164h.007l32.488,7.159-32.488-7.159,57.918,1.056h-.009l-.008,0-81.267-8.116,23.358,7.063-61.46,7.164,0,0Zm268.889-8.892-46.159,5.1h0l46.163-5.1h-.008ZM122.24,1111.1h0l-60.523,7.24h.009l60.535-7.241h-.007Zm-102.89-4.724h0l58.987-4.427h0l-58.988,4.428ZM84.733,1061.3,37.3,1066.046h0ZM1600.307,1306v0l89.72-17.591-4.878,3.042L1664.1,1304.57Zm-.01,0v0l26.821-21.536,30.763-4.042-30.761,4.041h0v0l24.5-37.854,39.427,2.177,9.1.5-9.1-.5-39.426-2.178,17.775-36.24-17.775,36.24-56.178-40.745,74.3,3.8h0l45.322,30.819-45.318-30.818,65.628,20.182,7.492,2.3h0l-7.491-2.3-65.633-20.185,11.931-26.132,12.575,9.991-12.571-9.989,73.116,30.845-.006,0,.007,0-11.922,17.775h0l-12.395,18.807-15.411-10.478,15.408,10.478h.009l81.453,9.949-8.3,4.943-5.629,3.354H1798l-32.949,1.547,32.94-1.547-14.955,2.776-2.779.516,2.779-.516,14.962-2.777h.008l18.5-.878-5.071.583-11.805.259,11.8-.258-31.172,3.587,31.173-3.587,15.589-.342-4.253.746h.009l4.247-.745h0l5.8-1.016,1.952-.093-1.932.092v0l18.047-3.165.081.007-8.49,2.7,25.311-1.2-16.821-1.5-.08-.007.227-.04-.3.034-38.886-3.471,38.884,3.471-34.3,3.947-18.508.878v0l5.625-3.351,8.3-4.943h0l14.276-21.96-14.278,21.96h0l-69.062-28.759,33.859,2.762-33.862-2.763,11.922-17.775h0l-.006,0-63.677-45.12,37.152,6.785,45.455,8.3L1760,1206.1l13.711-21.761,17.992,4.466-17.99-4.466,100.381-30.012-100.383,30.01h0l-.011,0v0l-45.44-8.3-37.153-6.786-52.192-57.186,26.3,18.227-26.293-18.227,5.278,2.793-5.284-2.8-18.783-24.495,18.781,24.494,52.19,57.183h0l-12-9.088,12.01,9.093,63.67,45.114v0l-73.1-30.839,9.435-14.277-9.435,14.275h0l-52.025-60.809,49.451,37.44-49.451-37.441-33.459-42.317,33.457,42.315,0,0h0l-63.405-16.584,18.343-40.409h0l0,0,50.33,42.925-50.333-42.93,8.391-9.243,1.744.287-1.744-.288-8.393,9.244-65.79,22.337,65.791-22.336-18.344,40.408,0,0,63.408,16.583-13.583,32.468,13.584-32.467,52.022,60.806v0l-65.6-28.34-76.066,16.974,26.24-66.026h0l-79.254,57.535,0,0v0l26.629-73.849,52.627,16.315-52.626-16.315h0l25.537-49.35,3.627-1.921.659-.349,8.981,3.184-8.98-3.184,13.779-7.3L1589,1052.823l-31.788-21.926,11.989-6.923-11.989,6.923h0l-13.78,7.3h0l-2.627-.932,1.913-2.035-1.914,2.035-54.728,31.309.021-.011h0l54.7-31.3-4.529,4.722-19.917,10.549,19.914-10.547-34.586,36.057-39.118,40.78,39.118-40.78,34.588-36.057,2.874-1.523-25.54,49.35-18.5,10.514,18.5-10.512-70.114,80.457,70.114-80.457-26.63,73.85-47.717,11.465,23.306-56.3-23.309,56.306-44.811,19.454h0v0h0l-42.8-4.924,45.613-24.849,17.925-9.764-20.731,39.531h0l20.731-39.53,47.386-36.223-47.385,36.221,35.42-43.221-35.42,43.221-40.891,1.025,40.887-1.022-17.923,9.764-45.613,24.847,4.249-6.355-4.249,6.355h0L1304,1161.506l47.632,28.155-104.487-18.753L1296.373,1157l-47.088-25.888,63.177-3.284-63.172,3.283,40.9-33.481-40.906,33.481v0h0l-33.3-14.771,58.989-14.875-58.989,14.874,36.193-32.813,38.013,14.1-38.01-14.1,49.992-19.768,21.661-8.565-33.641,42.433,33.642-42.433h0l-21.661,8.565-49.992,19.767-26.109.148,26.1-.147-36.192,32.813h0l-60.5,20.552h0l-20.719-3.648,0,0-.006,0h0l20.721,3.648-33.63,10.7,33.627-10.7-36.7,24.351h0l-21.786-5.742,0,0,.005,0h0l37.751-22.25h0l-37.759,22.254h0l-26.031-6.087.007-.005h0l40.967-17.816.015-.005.106-.035v0l39.1-13.555,20.158-5.775,13.164-.93-13.162.928,34.143-17.727-.011,0,.011-.005.011-.009,1.088-.82.681-.359-.68.358v0l49.181-37.061-15.934,14.28-14.279,12.8,0,0-34,27.117-7.047.5,7.043-.5-18.183,7.192,18.187-7.192h0l60.657-27.269-60.652,27.265v0l34-27.114h0l0,0,43.018-28-43.009,27.988h0l14.267-12.786,15.934-14.279,29.037-11.483-16.227,10.56,16.229-10.56-9.2,10.841,9.2-10.843,1.214.313-1.213-.313,19.866-11.649,12.486-7.321,9.276,26.581h0l2.785,7.978h0l-5.351-5.514,1.761-1.691-1.762,1.691v0h0l5.357,5.519,1.128,3.231,8.326,23.859-.438-13.214.438,13.213,6.181,10.844-54.634-1.018,54.634,1.019,5.226,9.167-12.835,18.727-46.788-28.767,46.785,28.768-.389.02.39-.02L1296.374,1157l40.842-30.456,36.878,29.534-36.877-29.534,53.516,1.845h0l-53.515-1.845,12.834-18.726,3.505,6.147,20.545.207,1.526.016,3.821-3.5-11.959-2.991-2.969-5.786,15.365,8.377-.438.4,2.167.542-1.729-.943,1.728.941-1.487-1.161,1.488,1.162-1.086-1.529-.4.367-10.819-8.451.387.081-.387-.082-1.7-1.331,2.252,1.444v0h.005l9.2,5.9-1.727-2.43,5.222,2.641-1.3,1.194,1.413.906.523-.358-1.564,1.637.008-.005h0l1.74-1.757.008-.007,1.006-.685-.219-.11,3.211-3.242,1.467.308-4.459,3.043.455.23-3.177,2.2,3.177-2.2,3.126,1.581,5.179-3.95,16.137,3.395.038.009.005,0h0l.005-.005.009-.01h0l31.636-39.87,56.552-52.186-63.006,65.771,63-65.768-35.242,50.717-.005,0-52.945,41.344,52.922-41.325-71.519,59.682h0l71.532-59.692-.014.011.02-.016-.006.005.013-.01-5.549,9.038,5.549-9.038,82.906-72.146-26.493,30.948,26.5-30.95,34.647,19.746-34.647-19.748,75.486-28.966-39.487,49.484,39.488-49.484-75.487,28.966,21.749-31.71-21.75,31.711-.006.005-82.894,72.134h0l35.236-50.709,47.658-21.425-47.653,21.421,28.7-26.712-28.695,26.707h0l43.039-67.528h0l0,0h0l-60.668,58.166,60.668-58.164-99.578,119.7,36.3-59.029h0l2.611-2.5-2.606,2.5,0-.009v0l42.284-72.98,72.048-75.828-67.414,87.744,67.422-87.751-51.064,88.156h0l51.068-88.162,0,.005-.007.006-72.046,75.826,122.685-165.67-50.628,89.831.006-.01,50.626-89.826,0,.006,0-.008,53.419-26.5-22.179,24.8,22.18-24.8-53.422,96.44-35.265,13.861,35.263-13.859-38.194,40.584,38.2-40.585L1680.95,818.4l-38.67,23.951,0,0,0,0,53.42-96.437,16.615,26.054L1695.7,745.913l73.97-23.412-45.008,68.824v0h0l-37.338,23.126,37.337-23.125-52.329,92.688,52.331-92.689L1748.045,877l-75.715,7.021,9.075,39.327-9.075-39.327L1748.044,877l-56.051,92.228-10.589-45.881,10.588,45.88h0v0h0l17.116,45.082-17.115-45.084h0l85.592-7.683L1737,1025.866l40.585-64.326,38.826,58.229-38.824-58.23,85.341-15.917-85.341,15.916,41.945-65.888-41.947,65.888-25.149-71.969,25.147,71.969-85.592,7.685h0L1748.045,877h0l83.164-.148-83.164.148h0l-23.384-85.667,75.1,4.5-44.907,70.491,44.908-70.489,31.747,81.023h0l-11.971,18.8,11.971-18.8,40.2,67.138h0l-40.2-67.137,79.005,1.182-79-1.184,30.549-42.012,15.275-21.005,9.334,14.681-9.333-14.681,77.556,23.907-36.666,40.409h0l36.4,32.661-36.393-32.66,85.47,2.037-85.47-2.039,36.665-40.409h0l8.93,2.65-8.929-2.651L1978,825.911l-23.112,11.824h0l-41.256-52.747,41.252,52.744-77.553-23.9,34.132-31.61-70.5-38.829,70.5,38.829-34.131,31.61h0v0h0l-15.275,21.007-30.549,42.01h0l-31.747-81.022h0L1769.673,722.5l37.319,10.935L1769.674,722.5l25.78-26.537L1769.672,722.5,1695.7,745.909h0v0l35.617-58.457,36.112,33-36.111-33,70.443,2.015,66.875,38.863,40.259,50.656L1868.64,728.33l64.817,54.365.006.005-.006-.005,22.187,19.66-22.18-19.655,64.252,48.592-17.037-6.753-25.035-22.185,25.035,22.186h0l21.523,15.5-21.515-15.5h.006l.033.015,16.991,6.732,4.324,2.12-4.323-2.12L2024,840.012v15.728h0v2.507l-60.18-17.861L2024,858.249v6.313l-20.3,15.621,20.3-15.62V947.34l-35.019,47.848h0l.007,0h0v0L2024,947.342v30.464h0v11.607l-35.012,5.775L2024,989.412v15.521l-74.776,42.563,39.612-52.119-39.617,52.122h0l.007,0L2024,1004.936v31.571l-1.9,2.64-30.486,3.494,30.482-3.493-105.613,57.305,105.615-57.3-22.994,36.054,22.995-36.055,1.9.254v41.544l-42.384,21.684,17.492-27.427-17.492,27.427L2024,1080.946v29.5l-27.359-5.047L2024,1110.45v16.337l-77.771,37.036h0l0,0,35.387-61.19L1874.1,1154.324h0l-73.367-7.231-95.19,11.151,95.189-11.151,73.367,7.232h0l-13.949,24L1846.2,1202.32h0l13.946-23.994,13.95-24,72.117,9.5-72.116-9.5,107.513-51.693-35.39,61.193-.007,0L1846.2,1202.323h0l0,0,72.373,12.75,70.476,8.349-90.393,27.339-64.13-10.463,64.125,10.463-14.21,1.662,14.211-1.662-10.409,11.625-37.118,1.953,36.585-1.358-36.585,1.359,5.08.4-5.08-.4h0l-.149.048,16.82,1.5-25.313,1.2h0l-3.068.977,28.709-2.149-.327-.029.023,0-.022,0h0l.328.029h0l.77-.059-.766.059.5.043v0l-.5-.045h0l-28.716,2.149-.761.242h0l-3.213.071,3.213-.07-11.81,3.758-69.217,8.669,65.136-11.423h0l-31.516,2.359,31.51-2.358-65.167,11.426,22.675-8.245h0l-90.224,15.9v0l22.69-15.188,67.086-.707-67.086.706,21.644-1.017-21.644,1.016,8.873-11.126-8.874,11.126-37.977,4.991,37.977-4.989-22.694,15.191Zm239.113-37.924-4.272.319-1.827.137,1.837-.137Zm-108.941-17.115-8.872,11.126,8.873-11.126Zm65.988-14.439,29.753,2.428-.011,0Zm49.74-34.191-19.986,36.617h0l76.622-19.8,15.735-4.066-15.735,4.066-76.624,19.8,19.985-36.617h0Zm-91.407,12.044,17.715,6.1-17.713-6.1,91.4-12.045h0l-91.4,12.045h0Zm-49.252-56.127,61.21,23.424-61.209-23.426h0l-12.955,9.878Zm-331.443-2.168-10.009,14.97,10.009-14.97Zm299.045-20.291,32.4,22.457h0l-55.451-40.27.007,0h0l10.8,2.883-1.012.624-6.086-2.181,6.087,2.183,1.013-.625,24.866,6.641-24.865-6.641,11.73-7.239-11.732,7.237h0l-10.806-2.886-.02-.022L1605.7,1067.3l5.6.911,14.787,18.976-14.784-18.975,64.318,43.556-3,1.854,3.005-1.854h0l93.363-12.183-93.363,12.182h0l46.7-62.639h0l-46.7,62.639h0l-26.441-60.512,26.438,60.509v0l0,0-64.316-43.554,4.315-3.748,28.515-24.766h0L1585,1018.419l59.14,21.276-28.513,24.766-4.315,3.748-30.116-51.158,30.114,51.156-5.457-3.762,5.455,3.761-5.6-.909-6.539-7.465-2.39-2.729.007.008,0,.006h0l.006.007.017.023,2.347,2.677h0l-.621-.429-.878-1.144.515.672.356.465-3.739-2.577,3.742,2.582,5.9,7.7-5.9-7.695.627.432,6.541,7.469-1.268-.206,15.7,20.473-15.7-20.472,1.269.206,44.384,50.675-1.258-.666,1.259.667,55.387,40.223h0Zm-239.606-20.275-18.353,39.536,18.354-39.536-4.944,3.374Zm-42.8,12.876-14.771,24.585,14.772-24.585h0Zm518.735-28.127-32.857,50.224,32.859-50.225h0Zm-223.71,27.239,45.2,12.073-9.651,7.089,9.652-7.089,0,0Zm83.235-27.917,65.943,8.086-86.926,26.672,86.927-26.672,47.25-24.877-47.248,24.875,25.5-32.525-25.505,32.525-65.944-8.085L1876.94,1054.1l-107.947,45.479,50.526-75.155,56.146,29.017-56.145-29.017,104.5-39.786-47.078,69.46,0,0h0l47.077-69.457,64.957,10.548-59.457,31.265,59.458-31.265h0l-64.957-10.549,43.837-61.95-43.837,61.949-52.315-40.652,96.151-21.3h0l-96.149,21.3h0v0l46.515-65.838v0l-46.515,65.839h0l-52.187,80.44h0l-97.192,24.7h0l42.871,46.355-42.87-46.355,97.189-24.7-50.525,75.154-3.793-4.1,3.793,4.1-32.44,34.11Zm-312.26-21.863-23.2,37.79,0,0Zm56.443-43.813-79.64,81.6.025-.022Zm.16-.164-27.315,34.86-35.422,43.224,35.422-43.224.021-.012.019-.011-.013.007-.006,0-.017.009,27.315-34.861h0l0,0Zm-134.275,73.893,1.468,2.065.722-.66Zm-153.91-23.766-19.69,10.614,19.881-10.715Zm372.338-25.83.318.413-.464-.6Zm-.72-.937.007.006-.006-.007-39.558-26.206,39.554,26.2-2.546-.9,2.54.9-2.048-.337,2.052.339.005,0,.006.006Zm-44.357-15.724,41.139,14.584-.011-.005Zm91.724-1.682,78.19,9.429h0l-78.19-9.431h0v0Zm0,0v0h0l-23.457-72.128,51.65-83.55h0l-51.651,83.549,23.456,72.128h0Zm47.858-70.47-47.856,70.47h0l47.856-70.469h0Zm-145.877,62.391-2.255,2.4,2.255-2.4,1.639-1.742,8.434.912-8.435-.914-1.638,1.743-30.78,1.994Zm35.072-14.566-67.844,16.689,67.845-16.687-11.988,6.922,11.989-6.923h0Zm7.5-83.938L1527.14,990.4l61.551-57.286-21.749,31.71,21.75-31.71,75.9-44.553-75.9,44.552-4.05,1.457ZM1748.045,877l4.394,12.574L1748.045,877h0Zm92.92-133.608,36.367,70.438v0l-36.366-70.437h0l-39.2-53.923h0l39.2,53.923h0Zm-41.2,52.435,64.643,15-64.643-15h0Zm14.987-19.073-14.987,19.071h0Zm26.215-33.36-26.215,33.36,26.216-33.36h0ZM1664.12,1304.568v0l93.459-23.82-27.006,17.583Zm-.01,0v0l21.039-13.119,4.879-3.042.051-.009,90.178-15.895-22.675,8.245h-.005l-67.5,7.65,67.5-7.65Zm-383.24-4.093-55.9-25.283,86.179,6.743-30.284,18.539Zm743.13-2.939h0l-21.332-7.843,21.333,1.182v6.662Zm-1039.63-2.385-43.831-2.751-43.838-2.752,44.573-11.161,43.1,16.662ZM2024,1290.873h0l-21.33-1.182-67.135-8.993,31.723-13.015h.007l13.872,2.227-13.866-2.226,56.73,2.132v6.974h0v14.083Zm-1810.554-4.327-96.508-9.353-26-36.422,47.06,6.686,47.06,6.687,28.384,32.4Zm1413.67-2.088h0l-58.555-22.194,83.055-15.661-24.5,37.856ZM0,1281.3H0V1271.9l20.436-.017L0,1281.3Zm2024-11.484-56.735-2.133,24.59-4.251,32.145.263-32.141-.264,20.484-3.794,11.657.747-11.656-.749L2024,1259v10.809Zm-590.443-.461,0,0,27.955-42.485,51.321,13.036-51.321-13.036,78.479-54.707-8.352,20.836,8.353-20.835,55.444,33.695-82.6,34.049h0l-79.278,29.449Zm377.882-.441,5.071-.583,16.312-.774-5.793,1.016Zm5.111-.586v0l34.273-3.943.068.006-18.066,3.167Zm66.87-1.036h0l-9.15-.817.8-.1h0l10.749-1.282-1.93,2.155-.43.037-.04,0Zm14.322-1.217v0l3.8-.806,32.57-3.79h-.014l-32.534,3.786v0l11-2.336h0l8.52-.573-8.516.572,4.1-.871,3.253-.26,16.823-.624-2.6.3h.033l2.57-.3h0l-16.775.623v0l10.973-.878h0l1.273-.1,6.361.145-1.729.2h0l-.092.011h.005l.2-.006h0l2.189-.081-2.2.081h0l-.089,0,1.717-.2,2.418.055h.032l64.31-1.294-56.487.614h0l-7.792.678h0l7.795-.676-3.118.034v0l10.871-1.5,67.383-5.12v1.31l-12.63,4.544-5.961.12,6.929-.075-20.484,3.794h-.042Zm40.361-4.868,53.709,2.224L1938.1,1261.2l2.886-.194h-.017l-2.878.194h0l-1.856.125Zm-68.34,4.6h-.005l16.621-1.329-16.556,1.326Zm9.23-.619v0l7.183-.483Zm7.183-.484,0,0h0l2.747-.184-2.747.187Zm.2-.225v0l1.769-.141Zm14.192-1.137v0l10.057-1.2.987-.037-3.285.617Zm-12.859-.351v0l7.545-.278Zm20.643-.271v0l3.264-.614,5.847-.217-.636.135.637-.135,2.428-.09-3.215.257Zm-20.11-.324h0l0,0,10.409-11.622.009,0,90.385-27.337-17.583,26.494,17.585-26.494h0l-70.475-8.35,28.685-11.6-28.684,11.6h0v0l27.649-51.246,68.659,12.306-68.656-12.309L2024,1126.787v45.5l-9.113,3.85-.005,0-67.623,27.342,67.625-27.342-25.835,47.288h0l28.787-10.594-28.784,10.592h0v0l25.835-47.286,8.977,1.866-8.976-1.866,9.113-3.85v5.743h0v32.533h0v25.374l-53.232,15.037h0l53.233-5.9v8.66l-67.374,5.118h0l14.144-7.876h0l-72.1-.209,72.1.209-52.226,9.822Zm-319.684-.129v0h0l26.875-56.4,56.178,40.746Zm342.1-.128v0l2.138-.255-1.177.221Zm.978-.036v0l1.168-.22,10.65-1.27-.883-.021-4.015.211v0l52.207-9.819-14.143,7.877-.02,0h0l-.025,0,.023,0-20.02,1.6-13.067.142.377.016-.379-.016-.015,0-.032,0h.016l-3.825.813,3.827-.813.406.01,1.758.073-1.756-.073,8.336.19-1.274.1h0l-11.036.883-2.437.091Zm26.96-1.146h0l4.885-.569-6.86.074v0l19.954-1.6-13.09,1.523h.005Zm-126.673-.044-81.451-9.949,12.4-18.81,69.055,28.756Zm120.307-.1h-.01l4.353-.348h.015Zm11.43-.161v0l2.062-.284h.008Zm-.156-.263v0l13.09-1.523h.006l-10.879,1.5Zm-1542.18-2.609h0l-30.773-28.058,87.657,23.546Zm696.048-2.348h0l-41.449-8.934,69.906-6.809Zm287.144-.873-98.849-14.193,39.152-11.789,59.7,25.979ZM458.2,1253.258l-87.652-23.545-28.069-31.647,28.062,31.644v0L282.9,1197.332h0l-27.473-34.257,82.148,31.825-82.147-31.826,55.842,1.267,14.2,15.3-14.2-15.3,50.153,17.529-50.152-17.529,51-.893,12.14,11.473-12.139-11.472,79.474,21.5-48.042,8.2h0l-52.919,2.99-15.306-16.494,15.3,16.494-57.875,1.191,57.876-1.191,83.014,28.36-83.011-28.36,52.92-2.99,31.644,31.31L393.7,1193.152l67.966,17.327L393.7,1193.151l48.043-8.2,7.848,6.593-7.848-6.594,80.927,11.432L476.7,1214.311l45.971-17.932,37.891,22.311,0,0-83.864-4.381h0l4.149,3.1-4.148-3.1,83.862,4.38-48.577,21.989h-.007l-85.751-15.345,46.754-10.211-46.756,10.211h0l31.979,27.923Zm1512.576-2.285v0L2024,1235.937v9.136Zm-952.582-9.091v0l29.564-15.168,36.6,4.424-36.6-4.425,60.715-15.994-24.108,20.42h-.006Zm-506.205-1.2v0l48.571-21.986,37.141,17.86Zm469.941-3.119v0l32.346-15.044,33.479,4.2Zm-384.227-1.008h0l-37.14-17.861,83.754-3.6-46.613,21.457Zm.006,0v0l46.61-21.454h.013l.006,0,83.749,5.3-44.709,11.252h0l-14.1-5.978,14.1,5.979ZM0,1234.272v0H0v-31.646l66.1.224.017.024.059-.021Zm311.607-2.222h0l-89.7-28.976,60.994-5.74,28.707,34.714Zm1149.907-5.185v0l25.461-63.193,53.015,8.489-78.474,54.7Zm-413.754-.153h0l-33.477-4.2,57.494-17.651-24.014,21.846h0Zm-319.674-6.31-83.76-5.307,42.331-13.145,41.43,18.451Zm-167.522-1.71h0l-37.891-22.312,36.437-.036-36.433.034v0l0,0h0l-36.778-26,38.917,1.658-38.918-1.659-14.271-10.469,14.268,10.469-77.022-12.925h0l-29.706-22.981,73.012,11.167,0,0v0l-73-11.166,43.324-10.089,20.56,14.721-20.559-14.721,26.708,1.92-26.706-1.921,42.528-13.405-42.529,13.4-69.423-7.949,12.627-2.811-12.628,2.811-69.634-7.615,46.934-7.266v0l-68.371-3.992,53.344-15.005,8.391,10.608-8.39-10.608,64.991,2.686-49.964,16.311,16.508,1.252-16.507-1.252,49.963-16.311,9.415,11.963,7.407,9.413h0l67.866,4.36-67.86-4.36,45.385-18.621,9.095.349-9.095-.35L420.414,1050.3l51.492-1.01-51.491,1.008h0l29.473-50.173,27.576,49.058h0l-27.576-49.057,54.3-4.745,67.42,2.274-30.32,52.079h0l-63.82-.551,24.964,34.611-24.963-34.61,63.818.55-5.6,6.713,5.607-6.712,37.675,43.116v0h0l-71.708-2.371,28.427-34.034-28.428,34.034-4.824-6.687,4.823,6.687h0l29.366,22.357-71.6-1.864,21.742-10.55-21.743,10.55,71.6,1.865-29.366-22.357,71.71,2.372-42.345,19.985,32.925,19.231-41.768,18.448h0l-37.8-2.44,37.8,2.441h0l37.656,23.245,0,0h0l39.236,22.531-39.235-22.533,80.289,7.659L604.677,1196.3h-.006l-36.451.036,36.455-.034-17.326,8.794,17.327-8.794,81.977,5.648-42.33,13.145-83.76,3.6h0Zm4.868-44.926L527.54,1193.8l37.892-20.038h0Zm-113.261-28.13,19.449,14.27-19.448-14.27,37.8,2.441-37.8-2.442,41.773-16.118,20.1,12.478-20.1-12.479,73.127,2.469-73.126-2.469,42.669-16.678-42.672,16.678-25.431-16.3,25.425,16.3-33.77-2.426,33.772,2.429-41.772,16.118h0Zm0,0-43.305,11.814h0l43.3-11.814Zm-55.023-39.021-31.458,7,31.457-7h0Zm110.1-16.133-20.49,9.942,20.491-9.942Zm720.865,126.7h0l-52.309-18.061,27.517-20.237,58.11,22.559-84.8-2.3,84.8,2.3Zm690.457-2.106h0l-72.368-12.75,100.02-38.5-27.652,51.248Zm-936-.794-82.529-2.663,44.549-11.161,37.979,13.822Zm687.165-4.627-74.3-3.8,7.868-19.333-7.869,19.333h0l-55.443-33.7-53.017-8.489,79.256-57.537-26.239,66.026,76.066-16.974-7.971,19.586,7.972-19.586,65.608,28.342-11.931,26.131ZM66.18,1202.849h0l-.08,0-23.584-33.818,65.106-23.226,24.579,33.4v0l-89.687-10.174L132.2,1179.2Zm456.487-6.472-80.923-11.431h0l-79.475-21.5,46.6-6,77.022,12.924h0l36.779,26ZM0,1189.925H0v-17.566l42.515-3.328L0,1189.924Zm985.812-4.041h0l-41.271-15.175,42.143-1.146-42.143,1.146,44.625-12.833,39.661,10.541-39.661-10.542L944.71,1143.7l61.659-.7-61.661.7,47.936-9.176h.009l90.707-4.245-46.161,12.376,46.162-12.376L1151.145,1118l-39.214,13.6-40.979,17.821-40.9,4.231-40.891,4.228,40.891-4.228,40.893-4.229-31.763,14.327,31.763-14.327,26.035,6.087-48.945,9.272,48.941-9.27-38.169,21.778-72.988,8.6,43-17.466-43.012,17.467h0Zm-674.541-21.542h0l-28.053-25.214,79.049,24.321-50.995.892Zm-.009,0-82.472-27.858,54.421,2.647h0l0,0h0l-79.645-19.911,53.734,2.559,21.529,14.414L257.3,1121.775l68.733,15.873,7.115,1.643-49.766-.164,49.767.165,75.718,18.159-46.6,6-79.052-24.321,28.048,25.21Zm807.522-3.094v0l36.692-24.348,20.743,6.352-20.739-6.354,60.5-20.55-37.855,27.487h0Zm-709.924-3.794-75.713-18.157,46.011-4.823,29.7,22.978Zm887.508-.45-89.276-2.019,42.192-23.867L1296.368,1157Zm-89.278-2.018h0l-28.964-11.151,71.158-12.716-42.191,23.867h0ZM687.6,1152.224l-75.547-29.313-33.09-30.057,74.369,22.386Zm490.525-8.4v0l37.853-27.485,33.3,14.77ZM944.7,1143.7l-49.491-26.324,97.426,17.15L944.7,1143.7Zm-.015-.005L837.222,1102.4l14.975,3.867,43.015,11.109,49.477,26.316Zm-565.529-9.226-26.1-18.039,69.419,7.95-43.324,10.088Zm190.388-2.4h0l-32.925-19.23,42.345-19.985,33.091,30.056ZM0,1125.337H0v-20.1l19.342,1.132,20.8,8.045,21.572,3.92Zm203.512-6.124-57.886-1.055-23.361-7.063,81.247,8.116Zm947.649-1.22v0l51.612-22.339-31.467,16.569,31.469-16.569,2.665-1.153-34.134,17.723Zm-497.823-2.751h0L614.2,1061.756l31.129,16.656-31.13-16.657,31.453-27.839,17.857,28.151-17.855-28.15,74.3,57.082-31.405,10.537h0l-31.621-16.919,31.623,16.921-17.6,6.852-17.6,6.852Zm0,0h0l-74.367-22.387,35.226-31.1h0l-35.229,31.1h0l-37.674-43.117,37.545,6.19-37.546-6.192,30.32-52.079h0l-67.42-2.275L514.2,970.763l14.6-35.884,42.8,62.775h0l21.513,32.381-21.513-32.381,74.038,36.261-31.452,27.838-21.073-31.718,21.073,31.719v0h0l39.14,53.481Zm728.386-4.111v0l1.472-1.54-.005,0,.918-.96h0l-1.548-.783,3.059-2.8,1.591.335-3.1,3.246h0l-.913.957.178-.121Zm-1.835-.84h0l-15.367-8.377-.747-1.458-2.021-3.939-2.453-4.782,1.874,1.931-1.875-1.932-21.941-42.767,19.027,32.289-19.023-32.285,37.714,53.059v0h0l-7.477-1.748-11.213-19.028,11.21,19.023-.007,0,0,0h0l-5.2-4.021,5.214,4.032,1.707,1.334v0l-5.53-1.163,5.534,1.165,10.821,8.451-.24.219Zm29.433-.252-.024-.005-11.1-2.594,10.992,2.57v0l-16.047-3.376.379-.289-3.621-.847,3.621.846,47.416-36.173-4.234,2.931v0l4.215-2.917-51.553,35.189h0l-1.576-.369,2.77-2.8-2.771,2.8-.18-.042,13.177-13.793,7.558-6.914-17.785,17.953,17.8-17.97-.019.018.019-.019v0l0,0,.007-.007.006-.006h0l3.723-4.891,7.958-8.33,38.758-40.567-38.758,40.567-7.957,8.329L1519.584,938.1l-42.292,72.992h0l0,0,.005,0,0,0,0,0h0l0,0-.107.113.107-.112-36.313,59.046.009-.011-.009.012,0,0,0,0-.02.014.018-.013,0,0,0,0-31.65,39.888h0Zm67.771-98.735-24.453,25.95,24.527-26.028-.058.061Zm-92.926,97.361h0l-.059-.032,3.1-3.247.171.036-3.212,3.242Zm-987.017-2.049v0h0l-7.408-9.412-9.413-11.963,40.086-34.935,22.125,37.689v0l-62.212-2.756,62.211,2.756Zm991.7-.886h0l-1.466-.308.413-.416,1.576.368-.522.356Zm1.058-.229-.536-.127.537.125h0Zm0,0h0l46.8-32.4-46.8,32.4Zm-2.7-.114h0l-1.59-.335.482-.441,1.513.354-.4.422Zm-9.876-.179-6.429-3.251-3.3-1.67,7.476,1.747.668.939-4.725-.992,4.727.995,1.585,2.23Zm10.28-.244h0l-1.512-.354,14.684-13.432-13.172,13.786ZM135,1101.19,57.48,1087.37l56.009-.485h.005l0,0,75.859,9.391Zm126.991-3.634-19.734-17.3,49.989-27.261h0l-87.109-.844,48.964-33.426h0l-48.962,33.425h0l87.111.844-49.989,27.261L223.69,1066.2l18.561,14.052,0,0h0l19.734,17.3,0,0h0l-1.23-.021-71.4-1.257L164.1,1075.7l40.625,2.367L164.1,1075.7l14.961-8.588L164.1,1075.7l-74.088-14.927,43.047-16.075,31,30.968-31-30.968,34.932-26.786L133.057,1044.7h0l-34.687-6.366-34.686-6.367,38.308-16.991-62.948-4.646L18.769,999.84l20.272,10.487v0h0l24.64,21.632v0h0l-6.536.91,6.537-.91L90,1060.77l0,0h0L16.711,1038.5l40.434-5.627L16.71,1038.5,0,1020.388v-14.467l23.9,2.7L0,1005.92v-2.9l4.808-2.055,1.241-.531,10.005-.468-10,.467,1.007-.43,8.614-3.682-5.907,1.84,5.91-1.841L54.73,984.154,18.769,999.84l35.969-15.688.011,0L75.1,993.83l-56.332,6.01L75.1,993.83l-36.058,16.5L75.1,993.83l-20.353-9.682,51.219-17.119,27.677,20.44-25.483,22.142,25.483-22.142,34.342,30.439,0,0h0l-34.464-1.533,34.467,1.535,37.139,34.237-37.136-34.237,34.111.321-34.112-.322-34.346-30.442,55.237-3.238-55.235,3.236h0l0,0,24.765-28.857-24.768,28.859h0L105.97,967.028l17.964-4.191-17.961,4.189h0l0,0,29.867-31.592h0l58.446-12.515-7.9,7.69,7.9-7.69,61.91,24.725-93.692,6.2-28.035,6.541L162.5,953.84h0l35.833,29.838h0l-35.833-29.838,93.692-6.2L198.34,983.676,256.2,947.643l46.906,30.862h0l-46.9-30.861,11.5-1.63,81.206-11.5-26.667,25.613,26.668-25.613,58.019-19.069-10.039,16.137,10.04-16.137,19.322,37.65-51.366,13.857h0l-66,10.627-5.778.931h0l-45.73,2.258,45.731-2.256-49.013,40.214-15.526-9.759,15.525,9.759h0l55.129-2.869,27.563-1.434-44.544,38.572h0l67.789-1.017-67.79,1.016,44.543-38.57,24.761,37.531-24.758-37.533,61.275-7.076-36.517,44.608v0l58.866-1.651-40.086,34.935h0l-15.845-28.083,15.844,28.084h0l-64.991-2.687,46.212-30.6-46.212,30.6h0l0,0h-.006l-53.332,15h0Zm-56.861-45.408-26.068,14.963,26.069-14.962ZM348.914,934.509l25.971,32.438v0ZM189.351,1096.278h0l-75.854-9.393,31.417-6.945,19.184-4.24,25.253,20.575Zm596.444-5.684-79.064-71.571L738.081,1032l47.716,58.588Zm-672.306-3.71-23.481-26.112,74.086,14.927-19.182,4.24Zm1327.492-16.748,99.589-119.711-43.041,67.532-56.544,52.178Zm-102.933-.3h0l-.689-20.872ZM0,1066.576H0v-13.929l37.294,13.4Zm90.007-5.8h0l-26.323-28.808,34.686,6.366,34.686,6.367Zm1165.727-4.174v0l54.57-50h0l0,.005,6.818,19.543-12.486,7.322-19.868,11.648ZM781.1,1054.47,738.081,1032,703.19,972.462l77.915,82.006Zm-419.553-2.518h0v0l36.515-44.606,22.349,42.957Zm58.863-1.652h0l-22.347-42.956h0l51.821-7.218L420.414,1050.3Zm1115.866-8.316v0l4.525-4.716-1.656,3.2Zm2.868-1.519v0l1.655-3.2,2.627.931-.658.348-3.622,1.919ZM2024,1039.4h0l-1.893-.253,1.9-.959v1.212Zm-1.892-.257h0l1.893-2.634v1.68ZM16.7,1038.5,0,1032.559v-12.171L16.7,1038.5Zm628.943-4.585h0l-74.034-36.258-42.8-62.775,64.42,20.024,7.635,2.374h0l-7.634-2.373-64.42-20.026,28.337-50.634,43.72,73.034h0l44.781,76.633Zm-581.965-1.95h0l-24.639-21.636,62.947,4.646-38.308,16.99Zm1755.839-7.537,52.187-80.44,52.314,40.652-104.5,39.788Zm-1565.426-5.705,0,0,49.011-40.213,5.779-.931,66-10.626-19.049,23.735,19.049-23.735,17.383,30.3-17.382-30.295,51.366-13.857-28.188,54.25v0h0l-61.276,7.077,19.049-23.736-19.049,23.735-27.565,1.435-55.126,2.867Zm143.972-11.379v0l28.187-54.247,23.633,47.029-23.633-47.03,46.225-12.052-22.591,59.082h0l-51.82,7.219ZM.625,1001.759h0l.963-.535-.961.534Zm.963-.534h0l1.144-.635-1.142.635ZM0,1000.717v0l2.729-.126h0l.1-.055-.1.056,3.318-.155-3.32.156h0Zm0-.037H0v-.413l1.336-.078,2.365-.138-3.7.629Zm449.888-.557h0l22.591-59.083-46.225,12.051h0v0L406.931,915.44l20.969-9.709-20.965,9.706h0l0,0,27.772-48.224,20.062-12.367,15.3-9.431-21.2,50.609L427.9,905.731l20.969-9.708-1.6,4.036,1.6-4.036,19.426,37.04-19.425-37.041,8.011-2.558-8.009,2.557h0v0l21.2-50.608,23.244,36.418-22.53,7.195,22.53-7.194,35.492,53.047-8.292.908,8.291-.907-14.6,35.884-10.016,24.616L490.98,972.746l13.206,22.634-54.3,4.743Zm59.952-63.17-37.361,4.085h0ZM3.724,1000.043v0h0l6.038-1.879Zm11.97-3.729v0l18.177-7.77-.043.017.042-.018,7.577-4.165-7.578,4.164,3.708-2.557,39.345-27.132.008-.006L87,958.369l-10.067.473,43.123-29.7L170.761,909l14.063,8.319L170.762,909l103.137-6.12-53.074,13.357L273.9,902.882h.006L375.9,885.5l4.577,2-4.575-2,54.073-26.469,31.42-27.015-26.684,35.188-4.736-8.171,4.736,8.172L390.93,892.083l-10.458-4.577,10.458,4.577L367.817,898.6l23.111-6.515-6.549,6.613,6.55-6.613,16,23.353-16-23.353L434.7,867.211l-27.774,48.227-58.018,19.069L329.7,921.622l19.21,12.885L267.7,946.012l-11.5,1.629v0l60.608-34.659h-.005L256.2,947.642h0l-61.907-24.723L309.2,913.6l-114.9,9.318,26.525-6.677-26.537,6.678h0L135.843,935.43l34-25.736-34.006,25.737-15.782-6.293,15.781,6.293L89.171,957.348l46.668-21.916-29.87,31.6L87,958.369l18.967,8.66L54.75,984.147l25.778-20.605L54.748,984.147h-.007l-.007,0h-.007Zm68.778-36.5L55.124,976.566l-13.675,7.807h0l13.674-7.807Zm35.583-30.674L87,958.367h0Zm153.851-26.255,42.906,10.1h0ZM703.18,972.451l-37.458-27.394h0l-37-66.436ZM600.864,957.276h0l-43.721-73.034,66.541,48.712-66.539-48.713,32.831-19.628,41.743,74.221h0l0,0-30.857,18.438Zm64.856-12.22h0l-33.994-6.217-41.745-74.224,49.472,52.541,26.268,27.9Zm-.006-.007L639.45,917.156l-49.471-52.541,22.337,8.073-22.339-8.075h-.005l0,0h0l-44.53-19.348,44.535,19.353-32.831,19.627h0L518.91,833.734l16.8,7.3-16.8-7.3h0l-48.84,11.678h0l-15.3,9.431L434.713,867.2h0l26.678-35.182,8.676,13.39h0l-8.676-13.39,34-19.037,18.325,16.17-18.324-16.17,59.447,2.1,16.782,23.661-16.781-23.662,73.884,63.542-16.409-5.93,16.409,5.931,36.99,66.429ZM528.805,934.878l-35.492-53.047,63.829,2.412-28.337,50.635Zm28.337-50.636-63.829-2.412,25.6-48.1,38.232,50.506Zm-63.83-2.412v0l-23.243-36.417,48.839-11.678-25.595,48.1Zm1306.445-86.009h0l-75.094-4.5,45.01-68.825h0Zm-157.479-23.408v0l89.037-84.957L1695.7,745.91Z" transform="translate(0.369 -687.217)" fill="rgba(0,0,0,0)" stroke="#000" stroke-width="0.3"/>
</svg>
