<svg xmlns="http://www.w3.org/2000/svg" width="1600" height="664.72" viewBox="0 0 1600 664.72"><g transform="translate(0 99.72)"><path d="M0,135.048S22.909-29.046,195.123,26.711,499.149,307.175,688.854,358.072,803.7,251.456,895.1,248.226s40.64,178.143,159.378,96.928S1233.59,6.021,1370.06-76.632,1600,6.555,1600,6.555V565H0Z" fill="#190404"/><path d="M1446.19-98.72a125.852,125.852,0,0,0-17.8,1.279,134.65,134.65,0,0,0-18.55,4.042,152.522,152.522,0,0,0-19.29,7.117,182,182,0,0,0-19.98,10.5,224.935,224.935,0,0,0-25.84,18.385,289.44,289.44,0,0,0-24.13,22.332c-7.51,7.754-15.12,16.4-22.64,25.685-7.02,8.676-14.21,18.245-21.37,28.442-12.45,17.711-25.48,38.239-39.85,62.755-12.79,21.827-25.35,44.579-37.49,66.583-10.88,19.715-22.13,40.1-33.31,59.363-12.51,21.573-23.71,39.584-34.22,55.06a430.807,430.807,0,0,1-36.5,47.245,269.112,269.112,0,0,1-19.54,19.592,198.834,198.834,0,0,1-20.64,16.314c-5.37,3.674-10.53,6.9-15.35,9.6a124.005,124.005,0,0,1-13.44,6.555,74.083,74.083,0,0,1-11.71,3.761,46.773,46.773,0,0,1-10.17,1.2,33.477,33.477,0,0,1-9.007-1.185,30.156,30.156,0,0,1-7.7-3.37,40.82,40.82,0,0,1-12.081-12.025c-6.8-9.882-11.6-22.967-16.68-36.821-5.741-15.66-11.676-31.852-20.926-44.1a59.652,59.652,0,0,0-7.557-8.33,47.03,47.03,0,0,0-9.05-6.437,45.294,45.294,0,0,0-10.856-4.163,55.1,55.1,0,0,0-13.01-1.484h-.012c-.775,0-1.568.015-2.356.042a64.418,64.418,0,0,0-12.209,1.544,48.4,48.4,0,0,0-10.061,3.5,45.26,45.26,0,0,0-15.074,11.841,78.476,78.476,0,0,0-10.508,16.734c-3.016,6.187-5.611,12.708-8.358,19.612-6.389,16.056-13,32.659-25.369,45.342a65.22,65.22,0,0,1-10.482,8.72,67.382,67.382,0,0,1-13.146,6.764,84.27,84.27,0,0,1-16.284,4.365,120.918,120.918,0,0,1-19.9,1.546,195.175,195.175,0,0,1-29.2-2.42,336.469,336.469,0,0,1-35.946-7.732,338.911,338.911,0,0,1-36.651-12.171c-11.616-4.593-23.495-10-35.308-16.068-11.155-5.731-22.639-12.253-34.131-19.384-10.729-6.657-21.873-14.1-33.122-22.117-19.53-13.922-40.427-30.317-63.887-50.122-20.88-17.627-41.713-36.178-61.859-54.119-18.217-16.222-37.055-33-55.608-48.791-20.77-17.684-39.094-32.34-56.019-44.806A534.639,534.639,0,0,0,254.6,54.107c-9.936-5.521-19.872-10.5-29.534-14.8a308.37,308.37,0,0,0-30.249-11.644,253.137,253.137,0,0,0-35.062-8.782,182.475,182.475,0,0,0-30.6-2.727,144.179,144.179,0,0,0-19.823,1.335,124.739,124.739,0,0,0-17.7,3.77,112.3,112.3,0,0,0-29.5,13.447c-15.244,9.853-28.3,23.6-38.815,40.858a166.4,166.4,0,0,0-11.138,21.87,183.975,183.975,0,0,0-6.826,19.1A145.642,145.642,0,0,0,1,135.12V564H1599V6.821c-.72-1.242-4.4-7.519-10.67-16.334-4.1-5.766-8.49-11.474-13.04-16.964-5.69-6.86-11.65-13.4-17.72-19.435-15.44-15.348-31.66-27.572-48.22-36.335a147.009,147.009,0,0,0-29.87-11.948,126.317,126.317,0,0,0-33.29-4.525m0-1C1540.1-99.726,1600,6.555,1600,6.555V565H0V135.048S16.754,15.153,129.155,15.153c19.1,0,40.952,3.458,65.968,11.557C367.337,82.467,499.149,307.175,688.854,358.072c26.342,7.068,47.6,10.118,64.89,10.118,107.246,0,62.644-117.183,141.359-119.964.8-.028,1.61-.042,2.391-.043,71.85-.015,52.683,117.917,106.876,117.917,12.29,0,28.35-6.06,50.11-20.946C1173.22,263.94,1233.59,6.021,1370.06-76.632,1397.27-93.119,1422.79-99.718,1446.19-99.72Z" fill="#190404"/></g></svg>