<svg xmlns="http://www.w3.org/2000/svg" width="144.813" height="78.574" viewBox="0 0 144.813 78.574">
  <path id="Tracé_11165" data-name="Tracé 11165" d="M126.378,78.233a.152.152,0,0,1-.113-.06h0l-.005-.009h0a.181.181,0,0,1-.014-.03.116.116,0,0,1-.005-.022s0-.005,0-.008V78.1a.158.158,0,0,1,.016-.081.153.153,0,0,1,.072-.069l.015,0a.138.138,0,0,1,.047-.007h.014a.151.151,0,0,1,.031.293l-.023.007ZM61.294,75.509l-.158-.142.187-.1a.147.147,0,0,1,.058-.017H61.4a.149.149,0,0,1,.121.236l0,.006h0a.147.147,0,0,1-.105.055h-.012A.149.149,0,0,1,61.294,75.509ZM38.2,45.95l-.158-.142.187-.1a.147.147,0,0,1,.058-.017H38.3a.149.149,0,0,1,.144.113.153.153,0,0,1-.023.123l0,.005h0a.15.15,0,0,1-.105.055H38.3A.149.149,0,0,1,38.2,45.95Zm69.282-1.065-.006-.013a.149.149,0,0,1,0-.148.151.151,0,0,1,.125-.076h.014l.025,0a.154.154,0,0,1,.071.041l0,0,0,0a.159.159,0,0,1,.029.046.153.153,0,0,1-.007.124h0a.222.222,0,0,1-.015.024.149.149,0,0,1-.114.054A.153.153,0,0,1,107.482,44.886ZM.01,11.621a.15.15,0,0,1,.045-.17L.1,11.417H.151a.162.162,0,0,1,.077.023l0,0a.153.153,0,0,1,.062.083.149.149,0,0,1-.059.167L.217,11.7a.171.171,0,0,1-.036.013H.148A.149.149,0,0,1,.01,11.621ZM82.723,7.352h0l-.009-.016a.146.146,0,0,1,0-.138.153.153,0,0,1,.113-.08l.289-.041-.135.26a.152.152,0,0,1-.092.075l-.022,0-.021,0A.151.151,0,0,1,82.723,7.352ZM144,.275h0L143.99.258a.146.146,0,0,1,0-.138.153.153,0,0,1,.113-.08L144.391,0l-.135.26a.145.145,0,0,1-.092.074l-.022,0h-.021A.152.152,0,0,1,144,.275Z" transform="translate(0.155 0.189)" fill="none" stroke="#000" stroke-width="0.3"/>
</svg>
