<svg xmlns="http://www.w3.org/2000/svg" width="2024.3" height="661.933" viewBox="0 0 2024.3 661.933">
  <path id="Tracé_11158" data-name="Tracé 11158" d="M1877.633,1349l97.014-28.316h0l-73.814-14.928,101.832-16.063,21.334,7.844V1349Zm97.017-28.317L2024,1319.4l-49.352,1.281h0ZM1872.478,1349l28.354-43.246h0L1872.478,1349h-36.9l-35.735-1.862,0,0-1.173,1.86h-2.51l3.683-1.86h0l-3.682,1.86h-50.038l56.621-25.095L1746.112,1349h-7l28.785-31.468h0L1739.113,1349h-45.687l18.414-7.781L1693.426,1349h-59.1l66.875-23.992h0L1634.327,1349h-19.283l20.535-20.022,65.625-3.971h0l-65.625,3.971,95.866-30.647-3.565,3.145,3.564-3.144,67.871-8.526h0l-67.875,8.527,96.314-26.312-28.44,17.784,28.441-17.784,54.952-4.671h0l-54.951,4.671,35.6-4.247-24.712.542-11.81,3.758-69.258,8.674,65.177-11.428h-.007l-65.167,11.426h0l-27.007,17.582-66.466,6.241h0l21.044-13.123L1664.1,1304.57,1600.3,1306h0l-5.9-.585,5.9.585-88.541,13.476-56.207-10.717,56.206,10.718-88.5,6.909h0l88.5-6.909h0L1600.29,1306h0l63.808-1.427h0l-29.34,24.273L1571.71,1327h0L1546.141,1349h-32.729l-33.373-6.392,91.668-15.613h0l-91.664,15.61,0,0-8.827,6.393H1395.54l-6.656-2.488,91.155-3.905h0l-91.152,3.9,34.358-20.127h0l-34.358,20.126-15.46-6.278,15.459,6.278-46.568-3.309,46.568,3.31-5.03,2.489h-64.968l-19.827-8.872h0l36.3-15.355h0l-36.3,15.355h0l-89.814-11.961h0l-.007,0-89.8-12.873,40.421-7.338.006,0,83.2,9.084-83.2-9.086h0l-40.416,7.337-47.313-15.911h0l47.316,15.912-44.9-4.57,44.9,4.571-42.365,1.478-47.424-10.617h-.007l-45.248-11,45.247,11-44.5,2.384h.012l-46.731,1.36h0l.587.055,46.562-1.347,47.516,6.437h.011l-47.528-6.439,91.984,8.35h.019l92.008,16.125h0l0,0,81.744,15.92H1194.71l-67.32-16.579h0L1164.654,1349H1003.073l-15.771-9.615h0l-.875-.3L965.161,1349H906.884l-21.846-10.885h0L906.883,1349H804.254l-21.016-11.147h0L804.252,1349h-46.4l25.387-11.147h0L757.845,1349H495.86l-17.726-11.568h0L495.859,1349H392.646l-16.2-11.233,50.843-.168-50.843.168h0l-11.223-6.717,11.222,6.716-101.686-.229-101.674-.658-28.806-27.568h0l28.805,27.568h0L138.115,1349H0v-12.78l71.421.051h0L0,1336.22V1306.1l45.263.044h0L0,1306.1v-24.8l20.437-9.413h0L0,1271.9v-37.627l66.182-31.424,24.756,37.922-47.055-2.5,47.055,2.5L59.826,1254.5l31.114-13.731h0l-24.756-37.921,91.767,14.4L132.2,1179.2,66.176,1202.85,0,1234.272v-31.649l66.1.224-23.584-33.818L132.2,1179.2h0l89.7,23.869L132.2,1179.2l63.05-13.157h0L132.2,1179.2h0l-89.687-10.173,65.107-23.226h0L20,1145.444h0l87.62.358-65.106,23.225L20,1145.445h0l22.515,23.583L0,1172.355v-17.8l20-9.113h0l-20,9.112v-21.365L46.5,1122,0,1133.191V1105.24l19.342,1.132,20.8,8.045h0l21.57,3.92h0l22.445,6.985-22.444-6.985,83.729-.179-83.722.178h-.008l-21.573-3.92,29.885-2.736-29.886,2.736-20.8-8.045h0L0,1105.239v-14.578l44.5,6.409L0,1090.66v-18.483l57.472,15.194h0L37.3,1066.047l76.187,20.837h0L37.3,1066.046h0l20.176,21.323L0,1072.176v-5.6l37.3-.53h0L0,1066.576v-46.187L16.707,1038.5h0L0,1020.388v-3.833l63.68,15.409-6.536.91,6.537-.91h0l38.308-16.991h0l31.53,1.4-31.531-1.4h0l-38.308,16.99-24.639-21.636h0L18.769,999.84l20.272,10.487L0,1005.92v-5.655l1.336-.077,2.365-.138h0l33.876-14.068L76.923,958.85l.009-.007L87,958.369h0l-10.067.473,43.124-29.7L170.761,909l-34.922,26.43-15.784-6.294,15.783,6.294L87,958.366l0,0,48.839-22.937h0l58.447-12.515h0l-58.447,12.514L170.761,909h0l103.137-6.12-53.074,13.357L273.9,902.882h0l102-17.379h0l54.076-26.468-39.04,33.048,39.039-33.047,31.421-27.016-26.684,35.188-4.737-8.172,4.737,8.173L390.93,892.083l-10.458-4.577,10.458,4.578h0l16,23.355h0l-16-23.354L434.7,867.211l0,0,0,0L461.39,832.02l8.677,13.391-15.3,9.432,15.3-9.431h0l-8.677-13.392,34-19.038,23.516,20.751-48.84,11.678h0l23.244,36.418L464,891.192l29.317-9.361h0l63.829,2.412-28.337,50.635h0l64.42,20.023-64.42-20.026,28.337-50.634-38.234-50.508,21.512,9.347-21.512-9.348,35.931-18.656,35.133,49.534h0l-35.133-49.535,73.884,63.542-16.409-5.93,16.409,5.931,36.994,66.436h0L628.726,878.62l74.459,93.837,0,0v0l77.92,82.011L738.082,1032h0l-31.351-12.983h0L738.081,1032h0l43.026,22.467,0,0,114.1,62.9L852.2,1106.267l43.015,11.11L944.7,1143.7l-107.482-41.3h0l107.48,41.3h0l44.455,14.174-93.8-14.654,93.8,14.654-44.622,12.832,41.266,15.177h0l-41.207,14.572h0l-94.046-15.144h0l0,0,94.04,15.143h0l37.985,13.825-82.535-2.663h0l82.537,2.664-39.1,13.5h0l38.44,9.775-41.86-1.51,41.857,1.511.009,0h0l65.83-10.85h0l-65.832,10.851,32.353-15.048h0l57.494-17.651h0l-57.495,17.65-31.691-8.231h0L944.6,1200.457l38.03-1.62-38.029,1.619,41.208-14.572-41.269-15.176,42.142-1.146-42.143,1.146,44.626-12.833,39.66,10.541-39.661-10.542h0L944.71,1143.7l61.659-.7-61.661.7,47.936-9.176h0l90.716-4.245-46.161,12.376h0l-48.033,15.218h0l48.034-15.218,74.731-11.062-74.731,11.062,46.162-12.376L1151.145,1118h0l20.159-5.775-59.36,19.367,59.36-19.367,13.164-.93-13.162.928h0l-20.16,5.776,51.627-22.345,3.779-1.99,49.18-37.062-15.934,14.279,15.934-14.278,29.038-11.483,0,0-29.042,11.484,54.574-50,0,0v0l27.045,42.354.007.009,0,.007,37.716,53.061,11.022,2.577,14.684-13.433,11.323-11.852L1519.584,938.1l0,0,122.685-165.67,0-.008h0l89.036-84.959,0-.006,0,0,70.444,2.015,66.875,38.863h0l0,0,64.817,54.366h0l.005,0,64.252,48.593-17.037-6.753-25.035-22.185,25.035,22.186h0l17.035,6.751L2024,844.179l-26.284-12.886L2024,840.012v24.549l-20.3,15.621h0l20.3-15.62V977.805l-35.017,17.381L2024,977.805v27.129l-74.78,42.566,39.76-52.311-64.957-10.55,43.837-61.95h0l-43.837,61.949h0l64.958,10.55-39.76,52.312h0L2024,1004.936V1039.4l-1.9-.254h0l-112.631,61.113h0l-35.369,54.063-73.371-7.232,108.74-46.831-108.74,46.831h0l73.37,7.232-100.383,30.01h0l-18.923,30.036h0l18.924-30.036h0l100.382-30.012-13.949,24,13.95-24,72.123,9.5h0l-72.122-9.5,107.513-51.693h0L1874.1,1154.324l35.37-54.063,112.633-61.113-22.994,36.054,22.995-36.055,1.9.254v87.385l-77.774,37.037h0L2024,1126.787v45.5l-9.113,3.85h0l9.113-3.85v38.278l-34.95,12.861h0L2024,1210.563v43.17l-67.375,5.118-.009,0h0l-.025,0,.023,0h0l67.384-5.118v1.31l-12.631,4.544-5.988.121,6.956-.076h.005l11.658.749-11.657-.749L2024,1259v31.87l-21.332-1.182h0l21.332,1.182v6.662l-21.333-7.844h0l-67.134-8.995h0l-12.745,9.2,12.747-9.2,67.132,8.994-101.83,16.062h0l73.814,14.928L1877.63,1349Zm-762.015-.8-74.039-18.775,46.548.085-46.548-.086-66.142-4.948,66.138,4.949h.006Zm689.377-1.059,100.99-41.383h0l-100.99,41.382Zm-813.991-8.255h0l-49.719-.378Zm-100.813-.768h0l51.75-16.368-51.752,16.368h0Zm0,0-47.49-17.3h0l47.49,17.3Zm-101.8-.262h0L681.5,1337.2h0Zm-440.891-20.5-67.581,20.182,67.582-20.182h0l-99.035-3.62h0Zm135.793,20.076h0l62.23-20.393h0l98.968-1.146-59.528,21.264,59.529-21.264,98.979,1.984h0l-98.981-1.983,56.617-15.117h0l-56.617,15.117h0l-98.967,1.146h0l-18.674-6.86,18.674,6.86-98.974,1.092h0l-24.25-10.637,24.25,10.638,98.974-1.093-62.232,20.393h0Zm33.89-.092,67.781-.182h0l50.832.019-50.834-.02h0Zm-440.6-1.069,50.525.3-50.524-.3h0Zm1055.963-3.85-44.329-2.915Zm0,0-94.282-17.379Zm-44.33-2.915-49.952-14.464h-.016l.014,0-.042,0-46.673-.548-.865-.083-48.736,7.334h0l-99.239-.932h0l99.239.933.641.22,48.96-7.472h0l.011,0,46.7.548,49.944,14.462ZM1571.71,1327l69.966-16.982-69.965,16.981Zm-148.468-.611h0l-87.881-1.611h0Zm-585.7-5.571-17.04,5.347,17.041-5.347-.007,0-99.22-2.935Zm863.664,4.193,66.688-7.473h0Zm-365.852-.234h0l-81.541-6.723Zm-407.825-4.831-38.27-7.455h0Zm-486.139-1.81h0l-99.049-.775h0Zm296.927-.255,54.221-10.639h0Zm509.28-.342h0l6.517-3.342-6.517,3.341-52.316-24.5Zm520.3,0,99.683-35.049h0l-99.678,35.047Zm-1425.559-.175,64.161-14.528h0Zm-99.037-3.621,66.665-17.435h0l96.531,6.527h0l-96.528-6.527h-.006L243.3,1313.734h0l-35.958-1.606,35.955,1.607h0Zm645.95-1.249-7.171,1.155,7.172-1.155h0l-96.71-5.25,51.61-3.425h0l-51.612,3.425h0Zm0,0-45.092-8.674h-.007Zm52.109-2.394-1.973-.106h0Zm893.316-.343h0l50.424-14.526-50.426,14.526Zm-1690.4-.437h0l-99.012-3.168h0Zm.005,0,69.163-22.764,48.261,4.877-48.259-4.877h0l-69.163,22.765Zm1311.257-.553h0l-86.887-2.1h0Zm0,0,85.221-8.66h0l-85.22,8.659Zm-470.476-.225-45.19-4.883h-.008l44.508-8.5h0l-44.516,8.5h0l-46.651.679.016,0-49.054-.517h0l49.054.518Zm174.783-.58-49.005-22.018h0l49,22.018Zm-367.311-.717L758.091,1295.5l34.443,11.735Zm576.11-.584h0l-87.778-6.176h0Zm0,0L1403,1291.387h0l-34.353,15.263Zm-339.013-.5,21.236-3.386-21.24,3.385Zm-136.5-1.833-42.984-12.151h-.005l-48.841-.8h.007l-50.1,1.312,50.1-1.311Zm-48.981-.505Zm-.005,0Zm0,0-42.835-12.447,42.833,12.447Zm95.705-.164-43.159-14,43.84,2.751-43.838-2.752h0l43.158,14Zm-436.841-.33,48.232-1.244-48.227,1.243h0Zm0,0h0l-96.505-.49h0Zm318.935-2.121-72.048-8.486h0Zm-222.469-.367,96.469-.054Zm0,0,56.272-13.172Zm681.385-.354h0l-85.583-7.441h0Zm0,0,30.285-18.54h0l34.811-15.4-34.813,15.4h0l-30.284,18.539-55.9-25.283h0l55.9,25.283h0Zm259.893-.379h0l86.347-15.638h0l24.5-37.856h0l-24.5,37.856-58.555-22.194h0l58.555,22.195-86.349,15.638,27.793-37.831h0l-27.794,37.831-55.337-15.35,41.565-11.241-41.566,11.241-21.418-6.355,21.416,6.356h0Zm-468.655-.716h0l-87.721-4.229h0l-43.1-16.666,85.2,2.272-85.2-2.272,42.277-11.639h0l-41.364-9.359h0l40.524-6.207-40.12-6.125h0l25.444-4.911-25.451,4.911h0l40.123,6.125-40.533,6.207,41.368,9.36-84.561-4.99,84.561,4.99-42.277,11.639-80.824-11.669,80.821,11.67h0l43.1,16.665h.01Zm-482.86-1.314-27.624-7.466h0l-10.449,2.268,10.45-2.268Zm606.034-5.031h0l-28.146-2.367Zm-445.38-.324h0l-40.5-14.973h0L749.9,1292.71Zm-282.409-.178,92.272-1.894-92.274,1.893h0Zm-6.325-.491-87.827-6.813h-.005Zm941.836-.654h0Zm0,0-24.854-10.831L1403,1291.386Zm0,0,30.546-22.034Zm-601.76-.033-40.787-18.71h-.006l-51.054,5.093Zm-239.622-.755h0l55.836-12.8,38.289,9.857h.007l53.635-9.921-.021,0-53.617,9.917-38.293-9.858,91.858-.064-38.677-13.278h-.007L617.455,1277.8h.008Zm1237.694-.8,98.4-23.73Zm-902.622-.156-41.686-23.617h0L809.04,1271.2h0l-39.407-8.877,39.409,8.879,45.969-5.166Zm793.333-1.246,90.225-15.9Zm-579.189-2.468h0l-84.359-5.178h0Zm-737.508-.705h0l-31.574-23.311h0l-31.284,4.391,31.285-4.391,31.574,23.31L279.193,1270.7h0l-94.131-16.553,64.83-14.93-64.832,14.928-27.028-36.884h0l27.028,36.884h0l94.131,16.555Zm799.765-1.747-29.327-12.63h0Zm694.487-1,67.943-1.783h0l-67.944,1.783Zm-1342.045-.023,91.837-4.653-36.539-8.643,58.3-3.055-58.3,3.053-.006,0-55.307,13.3Zm-.107,0L491.052,1271.9h0l-14.122-2.223,14.122,2.223-57.42,6.694.01,0-6.636.73,6.637-.73Zm785.719-.519-57.235-24.849,92.05,9.446h0l38.559-11.978h0l-38.558,11.977-92.049-9.448,0,0h0l-81.092-2.754h0l81.092,2.754,57.235,24.849Zm656.1-14.253-88.26,13.1,88.257-13.1h0l-69.513-1.609h0Zm-940.772,13.075,37.886-12.47,33-12.86,75.445-1.094h0l-75.446,1.094,28.457-15.744h0l-28.456,15.744-41.45-8.935h0l41.453,8.935-75.123,2.082h0l75.122-2.083-33,12.86h0l-37.885,12.47-42.924-13.91h0l42.921,13.911h0Zm643.436-1.921,42.8-5.623h0l67.534-.712h0l-67.536.712,28.859-1.356-28.859,1.355h0Zm-1236.365-.259-32.229-20.8h0l-30.774-28.059h0l30.775,28.06h0l-59.559,4.144Zm346.428-1.683-19.521-4.249,48.578-1.447-48.579,1.447Zm1244.018-.1-56.731-9.107h-.006Zm-799.031-1.6h0l-81.193-4.339h0Zm-464.511-2.548-39.111-21.2h0l39.109,21.2Zm1022.58-.661,14.962-2.777h-.006ZM491.053,1271.9l89.786-2.733-.005,0Zm942.5-2.543,79.281-29.449h0l82.6-34.048h0l-82.6,34.048h0Zm0,0,27.958-42.487h0l-48.2-2.348,48.2,2.348Zm364.45-.147h0Zm0,0h0l5.628-3.353Zm0,0h0l-49.287-13.316Zm-1082.45-.654-44.9-4.094h0Zm348.814-.266h0l-40.4-.72Zm902.9-.6,24.59-4.251,32.146.263-32.142-.264h-.01l-24.587,4.251Zm-81.207-.616,11.666-.992h0l-11.663.991Zm11.672-.993h0Zm0,0h0l3.808-.809h0Zm-1042.723-.042h0l-85.942-23.342L728.1,1220.405h0l40.966,22.283-85.681-11.034h0l-39.056-16.561h0l39.056,16.561-85.672,4.9h0l85.672-4.9-19.833,7.9,19.834-7.9,19.784,10.31-19.783-10.31,85.684,11.032h0Zm1136.846-2.6h0Zm-.013,0h0L1938.1,1261.2h0Zm-104.132-.443h0Zm.533-.6h0l10.41-11.624h0Zm-166.645-.307,8.873-11.126h0ZM341.678,1261.9l-30.07-29.848,58.939-2.336-58.939,2.336L282.9,1197.333h0l28.709,34.718-89.7-28.978h0l-63.868,14.187L249.81,1239.2,221.9,1203.072l89.706,28.978-61.718,7.163h0Zm557.31-.042,0,0L812.15,1243.2h0Zm-294.747-.53,29.372-9.835h0Zm1207.7-.417,86.713-10.142h0l-86.716,10.141h0l-69.063-28.759h0l69.062,28.759h0Zm136.929-.585h0l75.132-6.538Zm7.727-1.467h.017Zm.024,0h0l14.147-7.877h0ZM545.9,1258.323l87.713-6.834h0l-87.713,6.834h0l-33.909-17.641h0l33.908,17.641h0Zm-144.568-.55,56.881-4.512h0l53.772-12.579h0l-53.772,12.58h0l-56.883,4.512Zm620.916-.265h0l-39.52-6.231h0Zm-80.061-.023-43.59-10.193h0l43.589,10.193Zm442.343-2.933-59.706-25.983,88.487-4.054,73.666-60.848h0l26.63-73.852,52.627,16.315h0l-52.626-16.315,70.971-24.095-70.971,24.095,25.539-49.35h0l-25.54,49.35h0l-74.348,85.316h0l-44.811,19.453h0l-89.4-.545h-.009l89.412.544-13.324,13.056,13.325-13.056,44.811-19.454h0l47.719-11.465-73.668,60.849h-.015l-88.467,4.053h-.007l-39.155,11.789-23.176-9.333,23.175,9.333-85.729-4.414h0l85.729,4.414-1.115.588,1.117-.589h0l39.152-11.789,59.7,25.982ZM458.21,1253.26l-31.982-27.925h0l31.981,27.925Zm175.454-1.77,87.677-.049h0Zm1337.1-.515h0L2024,1235.937l-53.233,15.037Zm-240.3-.018h0Zm0,0-15.409-10.478,15.408,10.478Zm-685.572-.861,11.019-3.606h0l-2.052-.25,2.051.25Zm646.146-1.317-39.425-2.178h0ZM138,1247.457l-47.058-6.687h0Zm760.592-.165h0Zm0,0h-.005l-43.943-1.444-85.982-24.723-.012,0h0l85.987,24.723h.006Zm-.007,0-46.8-13.086h0l46.788,13.083Zm157.338-.8h0l19.478-10.509Zm-111.719-1.4,73.98-3.2h0Zm-132.057-1.88h0Zm0,0h0l-43.072-.515Zm0,0-29.289-14.868,29.285,14.867Zm206.054-1.317,66.175-10.746h0l57.581-9.2-57.581,9.2,24.109-20.42h0l-36.7-5.854h0l36.7,5.854-60.714,15.992,0,0h0l60.715-15.994-24.108,20.42-66.18,10.746h0Zm107.636-2.2h0l-41.461-8.542,41.457,8.542h0Zm0,0h0l25.32-19.211h0l24.65-21.346,52.31,18.061h0l-52.309-18.061,85.63,2.323h0l-85.628-2.322,27.517-20.237,43.816-7.976h0l-43.816,7.976h0l-73.135,7.516h0l73.141-7.517-27.517,20.237-45.625-12.72h0l45.624,12.72-9.891,1.7,9.892-1.7-24.652,21.346h0Zm700.379-.734h0l-38.269-3.121Zm0,0,76.622-19.8-76.624,19.8h0Zm-663.331-1.134,37.049-1.867h0Zm-264.677-3.27,45.275-6.755h0l-45.276,6.755h0Zm0,0-46.8-16.885,48.64-6.037,27.271,10.15-27.27-10.15h0l-.006,0L805.5,1191.3h0l-42.342-1.19h0l42.342,1.19h0l94.536,20.314-48.64,6.037,46.8,16.885Zm0,0-93.622-18.4h-.007l93.626,18.4Zm-46.421-.34-.005,0-43.408-5.446h0Zm891.089-2.056h0l-48.623-38.632,48.622,38.631Zm-7.5-2.305-65.633-20.186h0l-74.3-3.8,10.311-25.335-10.312,25.335-55.443-33.7h0l55.443,33.7h0l0,0,74.3,3.8-.344.7.345-.7,0,0Zm-1364.822-.128-29.773-33.572,29.772,33.571Zm437.812-.96-44.656-20.787h0l44.655,20.787Zm0,0-82.327-28.706,0,0Zm516.463-.183h0l-96.7-11.385h0Zm136.694-1.705,78.479-54.706h0Zm-1035.288-1.529h0l50.471-11.023-50.473,11.023h0Zm0,0h0l-85.446-29.192h0l-57.874,1.192h0l57.876-1.191Zm1562.822-1.908h0l-70.475-8.35h0l27.651-51.249h0l-27.652,51.248-72.368-12.75h0l72.372,12.75h0Zm-1220.4-2.3h0l-40.551-.719.007,0Zm0,0h0l-81.985-19.172,39.37-1.9h0l37.672,7.919.007,0,33.427,6.684-33.435-6.687h0l-37.67-7.917h0l-25.443-5.9,25.443,5.9-39.371,1.9-40.926-20.524,40.926,20.524Zm598.88-.152,71.733-45.834h0l-71.733,45.832,0,0Zm-.006,0-62.485-26.924,62.484,26.923ZM728.1,1220.4l0,0h0Zm-.006,0h0l-83.766-5.308h0Zm460.738-1.542,39.282-1.676h0Zm-628.265-.169h0l-83.864-4.381,45.971-17.932L476.7,1214.311l-83-21.159,83,21.159h0Zm0,0,83.754-3.6h0l-83.758,3.6-37.893-22.313h0l37.894,22.313h0Zm290.834-1.034,0,0-88.233-27.538h0l88.233,27.541Zm-693.371-.4h0Zm646.534-1.123-.007,0-34.949-14.826,34.954,14.83Zm950.228-1.764,91.4-12.046Zm-.008,0-63.677-45.12,37.152,6.785-37.153-6.786-52.192-57.186,0,0,52.194,57.188,63.677,45.12ZM994.37,1209l26.292-11.783h0l38.147-19.933h0l53.635-14.346-53.635,14.344,0,0h0l-38.147,19.933h0ZM763.7,1207.966h0Zm0,0-39.927-26.1h0l39.924,26.1Zm308.078-3.1Zm0,0h0l31.478-19.218,26.916.759h0l-26.914-.76h0Zm-24.8-1.295h0l-26.31-6.348h0Zm900.285-.09,67.625-27.341v0Zm-1260.6-1.529h0l-81.979-5.649h0l-41,.039,41-.038h0ZM282.9,1197.331h0l-27.471-34.256h0l27.472,34.256-87.64-31.285h0Zm737.767-.112Zm0,0h0l-34.848-11.334h0Zm-497.987-.84h0l-80.927-11.432h0Zm0,0,42.761-22.613Zm82-.077-39.24-22.536h0Zm789.768-1.712h0l20.734-39.536,47.386-36.223-47.384,36.221v0h0l-20.734,39.537-42.8-4.924h0Zm-89.412-.544h0l-101.708-15.157h0Zm-911.335-.893-82.426-28.809Zm318.66-.767-27.341-15.323h0Zm372.139-.766,18.76-5.974h0ZM805.5,1191.3h0l-42.181-40.827L805.5,1191.3l-77.712-37.658h0l-40.183-1.422-34.264-36.981h0l34.264,36.981h0l40.183,1.422Zm246.03-.954,30.868-6.867h0Zm-288.372-.236h0Zm0,0,0,0-39.391-8.256-29.633-24.284,29.631,24.284h0l.009,0Zm0,0-35.369-36.466,35.367,36.465Zm588.481-.448h0L1296.374,1157h0l55.263,32.664h0Zm-365.826-3.78h0Zm0,0h0l43.01-17.468h0Zm-135.265-.571,47.936-7.05Zm0,0-52.987-41.7h0l52.984,41.7Zm-408.805-.365h0l-79.475-21.5h0l-79.051-24.32h0l79.049,24.321h0Zm0,0,44.145-14.57h0Zm1331.971-.611-68.177-26.092-55.452-40.271h0l55.454,40.272-36.633-25.393,36.632,25.394h0l68.172,26.09Zm-92.044-.811,9.435-14.277h0l-9.435,14.276Zm0,0h0l-52.025-60.809,49.451,37.44-49.451-37.441-45.062-56.99,0,0,45.063,56.992-63.408-16.585h0l63.408,16.585h0Zm-599.263-.042,57.752-16.873Zm0,0,36.369-22.235Zm-358.636-1.623,0,0Zm-.006,0-38.749-4.8Zm-78.037-.433h0l35.354-3.928-35.357,3.927-39.4-24.2h0l39.4,24.2-80.288-7.66h0Zm624.552-1.27-23.13-9.244h0Zm-959.008-15.812,14.2,15.305-14.2-15.305h0l-55.844-1.267h0Zm818.942,15.027,35.125-8.176,0,0Zm-224.1-.441-7.622-.665h0Zm452.974-.395,15.014-22.456h0Zm-674.068-1.473-38.359-26.583h0l-40.319,6.752,40.322-6.752,38.36,26.584Zm480.329-5.87h0l41.743-16.208,40.05,15.926h0l-40.05-15.926,89.282,2.018-49.228,13.909h0L1296.373,1157l-47.088-25.888h0L1296.372,1157l-89.28-2.02,0,0h0l-41.744,16.208-25.186-4.579Zm81.8-.281h0Zm0,0h0Zm-302.608-.2h0l0,0-101.237-29.247h0Zm-458.641-.332,41.886-19.857Zm326.526-.645-50.537-20.653h0Zm216.408-1.315h0l42.122-19,26.035,6.087h0l-26.035-6.087h0l-40.892,4.229,40.892-4.229Zm9.364-1.774,58.79-11.136,0,0Zm101.968-.032h0l18.982-11.39Zm-944.9-.563,60.167-2.973,0,0-85.467-26.982h0l85.471,26.984Zm1202-1.232,17.925-9.764h0Zm-1085.986-.474h0l-82.477-27.859h0Zm1634.956-.514Zm-1690.8-.752h0Zm863.352-1.828,59.346-17.417h0l-59.343,17.417h0Zm-647.157-1.341-19.448-14.27h0Zm231.043-.13-15.057-7.551h0Zm1028.3-20.2-25.421,18.671,25.421-18.671,0,0-45.2-12.071Zm-1322.1,17.879h0l-75.717-18.158h0l-49.766-.164,49.767.165Zm0,0h0l-29.707-22.981,73.012,11.167h0l-73.009-11.167h0l-26.1-18.039,69.419,7.949-69.419-7.949,12.627-2.811-12.628,2.811-69.634-7.615h0l69.627,7.614h.009l26.1,18.039-72.26-12.933h0l72.258,12.932h0Zm197.461-.221,0,0-75.335-6.434Zm690.047-.229h0Zm0,0h0l40.842-30.456h0Zm94.358-28.611-16.637,27.689h0l16.637-27.689,71.536-59.7-.014.011-71.523,59.685-53.515-1.846Zm-16.637,27.689h0Zm0,0h0l59.437-40.565h0Zm0,0h0l-36.877-29.533h0Zm-1222.655-.152L107.623,1145.8h0Zm945.547-.421h0l37.764-22.257,20.721,3.648,0,0h0l60.5-20.551,0,0h0l74.2-18.711h0l-74.205,18.711,36.193-32.813h0l-36.193,32.813h0l-60.5,20.552-20.719-3.648h-.007l-37.764,22.257Zm-369.2-1.857-39.243-52.107h0l39.244,52.107-18.022-9.3Zm-200.012-3.128,41.77-18.449h0l42.51-9.159,34.592,27.563h0l-34.592-27.564-42.511,9.159-32.926-19.231,75.437,10.072-75.437-10.072,42.344-19.985h0l-71.711-2.371h0l71.711,2.371-42.345,19.985,32.926,19.231h0l-41.769,18.448-37.8-2.441Zm118.875-.043h0Zm424.3-1.061,40.979-17.821Zm-309.074-.337L719.951,1091h0l41.927,58.076-12.9-8.36Zm416.246-5.248,71.158-12.716h0l-71.156,12.717Zm-380.567-.22-28.232-32.8,28.231,32.8h0Zm0,0h0l-38.8-26.3Zm97.79-.392L785.81,1090.607Zm-52.058-1.76h0l0,0-94.332-54.309h0l0,0Zm887.672-1.886,38.033-39.989-3.793-4.1,3.793,4.1-93.363,12.182h0l93.363-12.183Zm-1397.816-.281h0l-7.114-1.643Zm-49.933-.166L257.3,1121.775h-.014l-53.73-2.559h0l53.734,2.559,25.918,17.352Zm-54.426-2.646h0l-83.155-18.321h0l83.147,18.321Zm-58.838-.389h0l-85.787-10.769,61.46-7.164h0l-61.46,7.164,0,0Zm52.781-3.755-19.176-13.12h0Zm344.348-.349-73.126-2.47h0Zm682.209-.874,83.792-4.355-83.79,4.354Zm-755.339-1.595h0l-28.931-18.542,71.6,1.864h0l-71.6-1.864h0l28.931,18.542Zm-36.97-2.658-34.49-2.48h0ZM0,1123.07l40.138-8.653h0Zm612.058-.16-33.09-30.057h0Zm-354.767-1.137h0Zm0,0h0Zm.008,0,49.6-.238h0Zm49.594-.239h0l-73.361-10.195h0l-76.325-3.227H157.2l76.333,3.227h0Zm861.294-1.514,23.329-9.226h0l60.658-27.268h0l-60.659,27.268,34-27.119h0l43.021-28-43.02,27.995,0,0-.005,0-34,27.117h0Zm-964.636-.807h0Zm0,0-23.687-8.457h0l53.086.579-53.088-.579-40.43-.915,40.43.916-57.594.338h0l57.6-.338,23.688,8.457Zm0,0-81.282-8.12h0l81.272,8.119Zm1259.018-.386,32.544-18.5-32.542,18.5Zm187.521-.854h0L1605.7,1067.3h0l44.385,50.675Zm-3.441-1.82-7.734-4.094-18.783-24.495,18.781,24.494-4-3.408,4,3.409h0l0,0,.006,0Zm-213.111-.642,52.487-46.907-35.421,43.224,35.422-43.224.021-.012-.021.011-52.487,46.906Zm0,0,79.8-81.765h0l-79.8,81.763Zm-780.2-.267h0l17.6-6.852-17.6,6.852L614.2,1061.756h0l31.453-27.839h0l-31.452,27.837-21.073-31.718,21.073,31.72h0l39.142,53.485h0Zm1022.288-3.476-3,1.854,3-1.854h0l-64.319-43.556h0Zm0,0h0Zm-1553.375-.672h0l-22.331-2.148h-.011Zm342.762-.119-67.865-4.361Zm-285.157-.22-22.66-2.642h-.011l-57.249.832h0l57.259-.831Zm1229.468-.723,88.2-92.07,0,0,47.664-21.427h0l-47.663,21.425h0l-56.549,52.182v0l56.55-52.184Zm-.043,0-16.137-3.4ZM99.915,1108.945h0Zm0,0-21.569-7h0l21.569,7Zm183.51-.129-72.11-4.143Zm-126.23-.7-22.2-6.922,22.2,6.922Zm1677.741-.444-65.942-8.086Zm0,0h0l57.14-30.084-57.14,30.083Zm-1437.791-1.053h0l-66.784-5.066,49.963-16.311-18.779-33.284,58.866-1.651h0l-22.349-42.959h0l22.348,42.958-58.866,1.651h0l18.779,33.284-64.99-2.687h0l64.991,2.687-49.964,16.312Zm0,0h0l45.39-18.621,64.712,2.488-20.493,9.943,20.493-9.943-4.823-6.687,4.823,6.686-64.712-2.488-62.212-2.756h0l62.212,2.756-45.39,18.621-7.408-9.414Zm-377.8-.243,58.988-4.427h0Zm1370.052-.526h0Zm-1181.528-.954,3.432-.218h0Zm3.438-.218h0l50.674-7.117-50.674,7.117-13.566-5.185,13.564,5.185h0Zm60.853-1.772-10.176-5.345h0Zm1709.451-.272L2024,1080.945l-42.384,21.683h0Zm-1144.4-.234-.008-.007-74.77-53.09Zm-758.871-.451h.008l56.645-.754h0l-56.65.754-20.864-14.573h0l20.864,14.573h0Zm1290.964-.327-5.535-1.164Zm-1038.946-.069h0l-6.637-8.39Zm358.181-.012h0L719.949,1091h0l-31.405,10.537-37.174-19.891,37.173,19.891h0Zm0,0-42.892-67.619h0ZM135,1101.191l54.356-4.911h0l71.4,1.255-71.4-1.256h0Zm1232.6-.909-11.213-19.028,11.212,19.027Zm0,0-8.3-8.547h0l8.3,8.546Zm-6.957-.485h0Zm408.356-.212L1876.94,1054.1l-9.066,11.561,9.066-11.562-1.274-.658,1.273.658Zm-424.168-.935h0l-54.633-1.018h0Zm12.9-.438h0Zm-67.538-.581,33.642-42.434,5.357,5.518v0l-5.355-5.517h0l-21.66,8.565,21.661-8.565-33.642,42.433Zm-1028.2-.072h0l-19.734-17.3,73.081,2.3-73.081-2.3,49.989-27.261h0l-87.112-.843,48.964-33.426h0l55.129-2.869-55.129,2.867h0l-48.962,33.426h0l87.112.843-49.989,27.261L223.69,1066.2l18.561,14.052h0l19.734,17.3Zm1099.766-1.042.631-.266Zm-1172.4-.236L164.1,1075.7h0l-.035-.035.035.035h0l25.256,20.578ZM797.6,1093.31l-11.792-2.705h0ZM719.948,1091l-43.941-72.363,72.943,68.509-72.943-68.509,30.721.386h0l-30.721-.386L719.946,1091Zm65.859-.393-47.724-58.6h0l47.724,58.6Zm-672.312-3.719,31.418-6.945-31.423,6.944-23.481-26.111h0l23.48,26.111h0Zm1138.685-3.359h0l32.594-38.409h0l19.866-11.649-19.868,11.649h0Zm249.505-5.48,34.588-36.057h0Zm-44.951-.325,5.549-9.039h0ZM164.094,1075.7l-74.085-14.927Zm0,0,14.961-8.588L164.1,1075.7Zm1276.848-5.533.027-.019h0Zm.035-.029,99.589-119.712h0l-99.587,119.708Zm-102.933-.3h0Zm124.237-1.161,82.9-72.142,0,0h0l-82.906,72.144ZM37.3,1066.045l-11.782-15.763,11.78,15.762Zm1606.838-26.351-28.514,24.766,28.515-24.766h0l-23.457-72.128h0l23.456,72.128-62.945-22.644h0ZM614.193,1061.755h0l-72.905-12.022,0,0Zm-524.187-.983-5.273.528,5.273-.528-26.323-28.808h0l26.324,28.808-73.3-22.273h0Zm445.674-4.326,5.607-6.713h0Zm1341.261-2.344,72.277-6.6h0l-72.277,6.6Zm-1584.7-1.11,69.3-1.039h0l-69.3,1.039Zm-87.116-.844h0l-72.071-7.451h0Zm0,0-37.136-34.237h0Zm215.286-1.847,57.05-1.119-27.576-49.059h0l27.576,49.059-57.048,1.117Zm120.873-.567h0l-63.821-.55h0Zm1181.042-.608,97.189-24.7h0l-97.191,24.7Zm0,0h0l-78.191-9.429v0Zm0,0,55.26-87.585-25.149-71.97,25.147,71.97h0v0h0ZM133.055,1044.7h0l-34.687-6.366Zm1419.358-3.319-8.98-3.183h0Zm-906.765-7.464L600.867,957.28h0l44.78,76.635Zm867.693-.176h0l5.354-6.254ZM738.081,1032h0l-72.355-86.943,0,0h0Zm1081.441-7.577,104.5-39.786,0,0h0l-104.5,39.788,52.187-80.44-52.187,80.44-41.931-62.886h0l41.93,62.886h0Zm-250.321-.454,11.989-6.923h0Zm-862.474-4.955v0l-75-80.175h0v0ZM676,1018.633h0l-26.678-21.784Zm821.524-.676h0l43.043-67.534h0Zm-1329.539-.047-34.344-30.442,64.693-3.792-35.833-29.838h0l-32,7.465,32-7.465-4.092,4.768,4.093-4.769,35.833,29.838-64.692,3.791h0l-27.675-20.44,27.675,20.44h0l34.344,30.441Zm168.8-3.49,61.275-7.076h0Zm0,0h0l19.049-23.735-19.049,23.735Zm1140.379-3.195.12-.125,0-.005Zm.124-.132h0l2.611-2.5-2.611,2.5,114.35-148.833v0l-.01.01-114.339,148.82Zm-1438.25-.766h0Zm0,0L75.1,993.83l-20.353-9.682h0L75.1,993.83l-56.332,6.01,35.969-15.688-.007,0L18.769,999.84,75.1,993.83Zm199.524-1.364-40.226-25.286h0Zm159.5-1.62,51.821-7.218h0l-51.821,7.218Zm-396.48-6.117h0Zm3.222-.26,13.961-1.125h0l-13.958,1.125Zm-2.078-.375h0Zm3.319-.155,10-.468-10,.467Zm443.838-.311h0l-23.634-47.032,46.225-12.052h0l-46.225,12.052h0l-51.368,13.856,32.044-51.506h0l-32.044,51.506h0v0l51.366-13.857h0Zm0,0,54.3-4.743,67.42,2.274h0l-67.42-2.274h0L490.98,972.746l13.206,22.633-54.3,4.743Zm1095.3-3.591,75.485-28.966ZM75.1,993.83l58.542-6.361Zm1451.377-2.817,62.212-57.9-21.749,31.711,21.75-31.711,83.637-49.094h0l-83.638,49.095h0ZM41.445,984.376l0,0,0,0,13.295-.228h0l-13.3.228,13.679-7.809-13.676,7.807Zm13.3-.228h0Zm143.6-.472h0Zm0,0h0l57.86-36.033h0Zm104.766-5.17-54.968,2.713,54.968-2.712h0l45.8-44h0l-45.8,44-46.9-30.862h0Zm5.78-.931,66-10.626h0ZM514.2,970.763l14.6-35.883h0Zm1177.79-1.539-10.588-45.88,10.588,45.88Zm-1586.026-2.2h0L87,958.369h0Zm-25.44-3.486L87,958.37h0Zm1697.062-2,94.117-17.553h0l-94.117,17.553ZM87,958.369h0Zm0,0h0Zm513.865-1.091h0l30.857-18.436h0l-30.858,18.436-43.721-73.033h0l43.72,73.034h0ZM426.254,953.09l22.616-57.067Zm1114.322-2.671h0l101.7-108.062h0ZM256.2,947.643h0l-61.911-24.725h0Zm.005,0,11.5-1.63-11.5,1.629Zm1615.506-3.657,96.151-21.3h0l-96.149,21.3ZM472.48,941.039l46.216-5.055-46.217,5.054Zm0,0h0l-23.609-45.016h0Zm159.243-2.2h0l-74.576-54.6h0ZM528.8,934.879Zm-179.892-.37h0l58.018-19.068-58.018,19.068h0Zm0,0h0L329.7,921.622Zm-154.624-11.59Zm0,0,122.523-9.936,0,0h0ZM2003.7,880.184l-35.834,42.5h0l35.834-42.5h0l-85.471-2.038,36.665-40.409,48.806,42.447-48.806-42.447h0l-36.665,40.409,0,0ZM639.45,917.156l-49.471-52.541h0Zm-232.518-1.717Zm0,0,20.969-9.708-20.968,9.707Zm-90.111-2.462L375.9,885.5Zm47.5-13.391,26.609-7.5h0Zm1455.215-3.935,11.971-18.8h0Zm-147.2-11.634L1748.044,877h0l83.164-.149-83.163.148,51.713-81.172v0h0L1769.673,722.5l71.291,20.888-26.217,33.362,26.218-33.362,27.673-15.059-27.673,15.059-39.2-53.923,39.2,53.923-71.29-20.89,32.09-33.033L1769.672,722.5l30.085,73.322h0l-51.712,81.173-23.385-85.668v0h0l-52.329,92.688h0l52.331-92.689L1748.045,877l-75.715,7.021Zm245.893-5.872-40.89-64.317h0l40.889,64.316-86.715-1.3h0Zm-326.578-15.89,15.365-6.039-15.365,6.038Zm0,0L1695.7,745.914h0L1591.647,862.25ZM2024,844.752l-43.32-20.209,0,0Zm-381.724-2.4,41.192-25.515-41.191,25.512Zm321.545-1.968-8.929-2.651h0Zm-8.932-2.652-43.422-55.518h0l43.423,55.519Zm-92.831-2.9,15.275-21.006h0Zm15.274-21.007h0l-77.571-18.005h0Zm34.132-31.609h0l-70.5-38.827Zm-215.765-36.3,73.97-23.412,0,0h0L1695.7,745.909v0h0ZM1798.665,1349l1.173-1.86,35.71,1.86Zm-237.556,0,74.469-20.022L1615.043,1349Zm-303.767,0-48.1-20.834,89.817,11.961L1266.787,1349Zm-92.687,0-37.267-16.579L1194.709,1349Zm-197.914,0,20.559-9.615,15.772,9.615Zm-621.193,0,30.9-11.233,16.2,11.233Zm-103.378,0H187.415l-14.329-12.119,101.67.658h0l101.686.229L345.548,1349Zm-104.054,0,34.969-12.119L187.414,1349Zm981.314-33.709,89.807,12.876-40.206,4.6ZM0,1271.9l20.436-.017L0,1281.3Zm943.487-44.114,70.791-5.273-32.353,15.048Zm39.1-13.5,31.692,8.231-70.791,5.273ZM0,1172.357l42.515-3.327L0,1189.925Zm1513.606-82.541-26.63,73.85-47.719,11.466Zm-618.394,27.56,97.426,17.15L944.7,1143.7ZM0,1016.555v-10.633l39.037,4.406h0l24.639,21.637Zm3.7-16.5h0ZM493.314,881.83h0l-23.244-36.418,48.839-11.678h0l-23.516-20.751,59.447,2.1-35.931,18.656h0l38.233,50.508Z" transform="translate(0.15 -687.218)" fill="rgba(0,0,0,0)" stroke="#000" stroke-width="0.3"/>
</svg>
